<svg xmlns="http://www.w3.org/2000/svg" viewBox="0 0 50 50" width="50" height="50"><path d="M25 4.166C13.494 4.166 4.166 13.494 4.166 25a20.77 20.77 0 0 0 10.416 18.034l.131.066c.11.063.213.134.325.194a21.3 21.3 0 0 0 4.231 1.759c.444.129.91.16 1.366.26.066.015.129.052.196.065.063.015.131-.013.196 0a20 20 0 0 0 1.627.26c.769.085 1.554.196 2.344.196.719 0 1.448-.059 2.148-.129.066-.009.131-.059.196-.066a20 20 0 0 0 1.627-.26c.065-.013.131.015.196 0 .066-.013.129-.05.196-.065.454-.098.923-.134 1.366-.26a21.3 21.3 0 0 0 4.231-1.759c.11-.06.216-.134.327-.194l.129-.066A20.77 20.77 0 0 0 45.834 25c0-11.506-9.328-20.834-20.834-20.834m0 4.166c9.19 0 16.666 7.477 16.666 16.666 0 5.481-2.673 10.306-6.771 13.346a7.9 7.9 0 0 0-1.691-2.669c-2.035 1.009-4.681 1.823-8.14 1.823-3.504 0-6.237-.813-8.269-1.823a7.9 7.9 0 0 0-1.691 2.669c-4.098-3.039-6.77-7.864-6.77-13.345 0-9.19 7.477-16.666 16.666-16.666m-7.096 6.25-.456.391a6.31 6.31 0 0 0-1.823 7.161 17.3 17.3 0 0 0-2.084 8.073v.26l.131.196c.14.195 3.542 4.752 11.327 4.752s11.188-4.559 11.329-4.752l.129-.196v-.259c-.029-4.069-1.469-7.081-2.019-8.073a6.31 6.31 0 0 0-1.823-7.16l-.52-.392-2.992 3.06c-.696-.235-2.115-.585-4.102-.585s-3.404.35-4.102.584zm2.93 8.333a2.084 2.084 0 1 1 0 4.166 2.084 2.084 0 0 1 0-4.166m8.334 0a2.084 2.084 0 1 1 0 4.166 2.084 2.084 0 0 1 0-4.166m-6.185 6.25h4.102l-2.019 2.019z"/></svg>