<svg  width="50" height="50" viewBox="0 0 1.5 1.5" xmlns="http://www.w3.org/2000/svg"><path fill-rule="evenodd" clip-rule="evenodd" d="M.125.406A.28.28 0 0 1 .406.125H.75a.25.25 0 0 1 .25.25v.063a.063.063 0 1 1-.125 0V.375A.125.125 0 0 0 .75.25H.406A.156.156 0 0 0 .25.406v.688a.156.156 0 0 0 .156.156H.75a.125.125 0 0 0 .125-.125v-.063a.063.063 0 1 1 .125 0v.063a.25.25 0 0 1-.25.25H.406a.28.28 0 0 1-.281-.281zm1.018.112a.063.063 0 0 1 .088 0l.188.188a.063.063 0 0 1 0 .088l-.188.188a.063.063 0 0 1-.088-.088l.081-.081H.688a.063.063 0 1 1 0-.125h.537L1.144.607a.063.063 0 0 1 0-.088" fill="#FFFFFF"/></svg>