<svg width="50" height="50" viewBox="0 0 2 2" xmlns="http://www.w3.org/2000/svg"><path d="M1.75 1.125H1.125v0.625c0 0.069 -0.056 0.125 -0.125 0.125s-0.125 -0.056 -0.125 -0.125V1.125H0.25c-0.069 0 -0.125 -0.056 -0.125 -0.125s0.056 -0.125 0.125 -0.125h0.625V0.25c0 -0.069 0.056 -0.125 0.125 -0.125s0.125 0.056 0.125 0.125v0.625h0.625c0.069 0 0.125 0.056 0.125 0.125s-0.056 0.125 -0.125 0.125m0 -0.375h-0.5V0.25a0.25 0.25 0 1 0 -0.5 0v0.5H0.25a0.25 0.25 0 1 0 0 0.5h0.5v0.5a0.25 0.25 0 1 0 0.5 0v-0.5h0.5a0.25 0.25 0 1 0 0 -0.5" fill="#00bf6f" fill-rule="evenodd"/></svg>