<svg version="1.1" id="Logo_Art" xmlns="http://www.w3.org/2000/svg" x="0" y="0" viewBox="0 0 600 83.503" xml:space="preserve" width="600" height="83.503"><style>.st0{fill:#1d252d}</style><path class="st0" d="M156.567 4.001h35.141c15.482 0 27.138 11.134 27.138 26.095 0 10.96-6.437 19.658-16.179 23.485l18.615 28.529h-21.745l-16.353-26.791h-9.046V82.11h-17.571zm17.57 16.526v19.658h17.397c5.393 0 9.568-4.175 9.568-9.742 0-5.741-4.001-9.916-9.568-9.916zm50.102 32.705c0-17.222 13.395-30.27 31.139-30.27 17.57 0 31.139 12.873 31.139 30.617 0 1.566-.174 3.479-.522 5.045H241.81c1.74 6.61 7.132 10.785 14.091 10.785 5.393 0 9.568-2.262 12.003-5.393h17.57c-4.175 11.658-15.831 19.487-30.095 19.487-17.744 0-31.139-13.047-31.139-30.27m17.744-5.566h26.791c-1.74-6.263-6.959-10.438-13.395-10.438s-11.656 4.001-13.395 10.438m57.756-8.176h-8.698V24.355h8.698v-3.828c0-13.569 7.654-20.528 22.616-20.528h7.132v15.135h-5.566c-5.045 0-7.654 2.609-7.654 7.306v2.088h12.525v15.135h-12.525v42.621h-16.526zM338.88.696h16.526v81.415H338.88zm25.747 52.537c0-17.222 13.395-30.27 31.139-30.27 17.57 0 31.139 12.873 31.139 30.617 0 1.566-.174 3.479-.522 5.045h-44.186c1.74 6.61 7.132 10.785 14.091 10.785 5.393 0 9.568-2.262 12.003-5.393h17.57c-4.349 11.656-15.831 19.658-30.095 19.658-17.744-.174-31.139-13.222-31.139-30.444m17.744-5.566h26.791c-1.74-6.263-6.959-10.438-13.395-10.438s-11.482 4.001-13.395 10.438m65.411 5.566L427.95 24.529h20.006l11.134 17.048 11.135-17.048h19.832l-19.832 28.704 20.179 29.052h-20.006l-11.482-17.397-11.307 17.397h-19.832z"/><path d="M526.066 4.001h20.701l29.4 78.109h-19.31l-4.697-13.743h-31.835l-4.871 13.743h-18.788zm20.354 48.362-10.264-28.878-10.264 28.878zm36.01-48.362H600V82.11h-17.57zm-496.318 0c-5.915 0-11.482 1.391-16.526 3.653 10.09 8.525 16.353 21.223 16.353 35.489 0 14.091-6.263 26.791-16.179 35.489 5.045 2.262 10.612 3.653 16.353 3.653 21.571-.174 39.141-17.571 39.141-39.142V4.001z" style="fill:#00bf6f"/><path class="st0" d="M39.142 4.001c21.572 0 39.142 17.571 39.142 39.142s-17.57 39.142-39.142 39.142H0V43.143C0 21.572 17.57 4.001 39.142 4.001"/><path d="M28.008 42.969a6.263 6.263 0 0 1-6.263 6.263 6.263 6.263 0 0 1-6.263-6.263 6.263 6.263 0 0 1 12.525 0m17.222 0a6.263 6.263 0 0 1-6.263 6.263 6.263 6.263 0 0 1-6.263-6.263 6.263 6.263 0 0 1 12.525 0m17.397 0a6.263 6.263 0 0 1-6.263 6.263 6.263 6.263 0 0 1-6.263-6.263 6.263 6.263 0 0 1 12.525 0" style="fill:#00c771"/></svg>