<svg version="1.1" id="Logo_Art" xmlns="http://www.w3.org/2000/svg" x="0" y="0" viewBox="0 0 100 13.917" xml:space="preserve" width="100" height="13.917"><style>.st0{fill:#1d252d}</style><path class="st0" d="M26.095.667h5.857c2.58 0 4.523 1.856 4.523 4.349 0 1.827-1.073 3.276-2.696 3.914l3.102 4.755h-3.624L30.531 9.22h-1.508v4.465h-2.929zm2.928 2.754v3.276h2.899c.899 0 1.595-.696 1.595-1.624 0-.957-.667-1.653-1.595-1.653zm8.35 5.451c0-2.87 2.232-5.045 5.19-5.045 2.928 0 5.19 2.145 5.19 5.103 0 .261-.029.58-.087.841h-7.364c.29 1.102 1.189 1.797 2.348 1.797.899 0 1.595-.377 2-.899h2.928c-.696 1.943-2.638 3.248-5.016 3.248-2.957 0-5.19-2.175-5.19-5.045m2.957-.928h4.465c-.29-1.044-1.16-1.74-2.232-1.74s-1.943.667-2.232 1.74m9.626-1.363h-1.45V4.059h1.45v-.638C49.956 1.16 51.232 0 53.725 0h1.189v2.522h-.928c-.841 0-1.276.435-1.276 1.218v.348h2.087V6.61H52.71v7.104h-2.754zM56.48.116h2.754v13.569H56.48zm4.291 8.756c0-2.87 2.232-5.045 5.19-5.045 2.928 0 5.19 2.145 5.19 5.103 0 .261-.029.58-.087.841H63.7c.29 1.102 1.189 1.797 2.348 1.797.899 0 1.595-.377 2-.899h2.928c-.725 1.943-2.638 3.276-5.016 3.276-2.957-.029-5.19-2.204-5.19-5.074m2.957-.928h4.465c-.29-1.044-1.16-1.74-2.232-1.74s-1.914.667-2.232 1.74m10.902.928-3.305-4.783h3.334l1.856 2.841 1.856-2.841h3.305l-3.305 4.784 3.363 4.842H78.4l-1.914-2.899-1.885 2.899h-3.305z"/><path d="M87.678.667h3.45l4.9 13.018H92.81l-.783-2.29h-5.306l-.812 2.29h-3.131zm3.392 8.06-1.711-4.813-1.711 4.813zm6.002-8.06H100v13.018h-2.928zm-82.72 0c-.986 0-1.914.232-2.754.609a7.7 7.7 0 0 1 2.726 5.915 7.86 7.86 0 0 1-2.696 5.915c.841.377 1.769.609 2.726.609 3.595-.029 6.523-2.929 6.523-6.524V.667z" style="fill:#00bf6f"/><path class="st0" d="M6.524.667c3.595 0 6.524 2.929 6.524 6.524s-2.928 6.524-6.524 6.524H0V7.191A6.533 6.533 0 0 1 6.524.667"/><path d="M4.668 7.162a1.044 1.044 0 0 1-1.044 1.044A1.044 1.044 0 0 1 2.58 7.162a1.044 1.044 0 0 1 2.087 0m2.87 0a1.044 1.044 0 0 1-1.044 1.044 1.044 1.044 0 0 1-1.044-1.044 1.044 1.044 0 0 1 2.087 0m2.899 0a1.044 1.044 0 0 1-1.044 1.044 1.044 1.044 0 0 1-1.044-1.044 1.044 1.044 0 0 1 2.087 0" style="fill:#00c771"/></svg>