<svg version="1.1" id="Logo_Art" xmlns="http://www.w3.org/2000/svg" x="0" y="0" viewBox="0 0 110 15.309" xml:space="preserve" width="110" height="15.309"><style>.st0{fill:#1d252d}</style><path class="st0" d="M28.704 0.734h6.443c2.838 0 4.975 2.042 4.975 4.784 0 2.01 -1.18 3.604 -2.966 4.305l3.412 5.231h-3.986l-2.999 -4.912h-1.659v4.912h-3.222zm3.221 3.029v3.604h3.189c0.989 0 1.755 -0.766 1.755 -1.786 0 -1.053 -0.734 -1.818 -1.755 -1.818zm9.185 5.996c0 -3.157 2.455 -5.55 5.709 -5.55 3.221 0 5.709 2.36 5.709 5.613 0 0.287 -0.032 0.638 -0.096 0.925H44.332c0.319 1.212 1.308 1.977 2.583 1.977 0.989 0 1.755 -0.415 2.2 -0.989h3.221c-0.766 2.137 -2.902 3.573 -5.518 3.573 -3.253 0 -5.709 -2.393 -5.709 -5.55m3.253 -1.021h4.912c-0.319 -1.148 -1.276 -1.914 -2.455 -1.914s-2.137 0.734 -2.455 1.914m10.589 -1.499h-1.595V4.465h1.595V3.763C54.952 1.276 56.355 0 59.098 0h1.308v2.774h-1.021c-0.925 0 -1.404 0.479 -1.404 1.34v0.383h2.296v2.774h-2.296v7.814h-3.029zM62.128 0.128h3.029V15.054h-3.029zm4.72 9.632c0 -3.157 2.455 -5.55 5.709 -5.55 3.221 0 5.709 2.36 5.709 5.613 0 0.287 -0.032 0.638 -0.096 0.925H70.07c0.319 1.212 1.308 1.977 2.583 1.977 0.989 0 1.755 -0.415 2.2 -0.989h3.221c-0.797 2.137 -2.902 3.604 -5.518 3.604 -3.253 -0.032 -5.709 -2.424 -5.709 -5.581m3.253 -1.021h4.912c-0.319 -1.148 -1.276 -1.914 -2.455 -1.914s-2.105 0.734 -2.455 1.914m11.992 1.021 -3.636 -5.261h3.667l2.042 3.125 2.042 -3.125h3.636l-3.636 5.262 3.699 5.326H86.24l-2.105 -3.189 -2.074 3.189h-3.636z"/><path d="M96.446 0.734h3.795l5.39 14.32h-3.54l-0.861 -2.519h-5.837l-0.893 2.519h-3.444zm3.731 8.866 -1.882 -5.294 -1.882 5.294zm6.602 -8.866H110V15.054h-3.221zm-90.992 0c-1.085 0 -2.105 0.255 -3.029 0.67a8.47 8.47 0 0 1 2.999 6.507 8.646 8.646 0 0 1 -2.966 6.507c0.925 0.415 1.946 0.67 2.999 0.67 3.955 -0.032 7.175 -3.222 7.175 -7.176V0.734z" style="fill:#00bf6f"/><path class="st0" d="M7.176 0.734c3.955 0 7.176 3.222 7.176 7.176S11.132 15.087 7.176 15.087H0V7.91A7.186 7.186 0 0 1 7.176 0.734"/><path d="M5.135 7.878a1.149 1.149 0 0 1 -1.148 1.148 1.149 1.149 0 0 1 -1.148 -1.148 1.148 1.148 0 0 1 2.296 0m3.157 0a1.149 1.149 0 0 1 -1.148 1.148 1.149 1.149 0 0 1 -1.148 -1.148 1.148 1.148 0 0 1 2.296 0m3.189 0a1.149 1.149 0 0 1 -1.148 1.148 1.149 1.149 0 0 1 -1.148 -1.148 1.148 1.148 0 0 1 2.296 0" style="fill:#00c771"/></svg>