<svg fill="#f8f8ff" height="200" width="200" xmlns="http://www.w3.org/2000/svg" viewBox="0 0 98.192 98.192" xml:space="preserve" stroke="#f8f8ff">
  <g stroke-width="0"/>
  <g stroke-linecap="round" stroke-linejoin="round"/>
  <path d="M95.799 87.061c-1.96-1.857-3.291-4.046-3.963-6.514a18.1 18.1 0 0 0 1.658-7.593V57.771c0-6.521-3.432-12.239-8.572-15.493v-9.857c0-14.083-11.457-25.54-25.54-25.54H31.524c-14.083 0-25.539 11.457-25.539 25.54V54.27c0 3.778.819 7.423 2.436 10.846-.979 3.837-3.005 7.229-6.028 10.092L0 77.475l3.114 1.076a19.6 19.6 0 0 0 6.417 1.06c3.412 0 6.997-.823 10.667-2.448a25.6 25.6 0 0 0 11.327 2.646h7.265c2.722 6.729 9.297 11.502 16.993 11.502h19.355c2.727 0 5.432-.612 7.884-1.777 2.54 1.089 5.025 1.641 7.402 1.641 1.613 0 3.18-.259 4.654-.769l3.114-1.077zm-74.59-13.882-.897-.49-.923.44c-4.185 1.996-8.173 2.8-11.817 2.362a24.36 24.36 0 0 0 4.913-10.181l.154-.698-.323-.638a21.3 21.3 0 0 1-2.331-9.706V32.421c0-11.877 9.663-21.54 21.539-21.54h27.858c11.877 0 21.54 9.663 21.54 21.54v21.848c0 11.876-9.663 21.538-21.54 21.538H31.524a21.6 21.6 0 0 1-10.315-2.628zm69.214 13.993c-2.06 0-4.277-.561-6.592-1.664l-.923-.44-.897.49a14.4 14.4 0 0 1-6.874 1.751H55.782c-5.433 0-10.159-3.039-12.594-7.502h16.194c14.083 0 25.54-11.456 25.54-25.538V47.29c2.809 2.62 4.572 6.345 4.572 10.48v15.183c0 2.258-.523 4.433-1.555 6.466l-.324.638.154.699a17.5 17.5 0 0 0 2.841 6.413z"/>
</svg>
