<svg xmlns="http://www.w3.org/2000/svg" xmlns:xlink="http://www.w3.org/1999/xlink" viewBox="0 0 400 266.667" xml:space="preserve" width="400" height="266.667"><g/><path style="fill:#a3a0cf" d="M50.629 214.203a418 418 0 0 1 2.022-30.184c.032-.309.081-.651.32-.85.19-.158.453-.185.699-.204l29.714-2.391c4.929 6.922 10.029 14.293 10.751 22.759.332 3.89-.297 7.812-1.362 11.568"/><g style="opacity:.4"><defs><path id="a" style="opacity:.4" d="M50.629 214.203a418 418 0 0 1 2.022-30.184c.032-.309.081-.651.32-.85.19-.158.453-.185.699-.204l29.714-2.391c4.929 6.922 10.029 14.293 10.751 22.759.332 3.89-.297 7.812-1.362 11.568"/></defs><clipPath id="b"><use xlink:href="#a" style="overflow:visible"/></clipPath><g style="clip-path:url(#b)"><path style="fill:#471751" d="M62.981 181.292c.5.018.379 4.108.394 4.63l.146 4.95c.023.774.033 1.55.069 2.324.026.551.119 1.061.505 1.481.459.5 1.06.898 1.585 1.326l1.941 1.58c.314.255.764-.19.448-.448l-1.941-1.58c-.534-.435-1.43-.934-1.755-1.563-.212-.411-.156-.974-.17-1.427l-.038-1.303-.077-2.605-.15-5.081c-.023-.783.286-2.874-.958-2.919-.408-.014-.407.619 0 .634"/></g><g style="clip-path:url(#b)"><path style="fill:#471751" d="M67.723 179.711c.305 1.094.321 2.21.31 3.338l-.036 3.58-.072 7.188-.145 14.375-.083 8.253c-.004.408.629.408.634 0l.294-29.283.04-3.993c.011-1.222-.002-2.439-.332-3.625-.109-.393-.721-.226-.611.168"/></g><g style="clip-path:url(#b)"><path style="fill:#471751" d="m73.583 180.787 3.606 7.431c.441.909.795 1.865 1.857 2.16.364.101.767.122 1.14.19 3.713.674 7.395 1.547 11.079 2.361.397.088.567-.523.169-.611-3.596-.795-7.19-1.629-10.809-2.311a33 33 0 0 0-1.036-.173c-.493-.077-.9-.223-1.202-.658-.343-.493-.564-1.099-.825-1.637l-3.431-7.071c-.178-.366-.724-.046-.547.32"/></g><g style="clip-path:url(#b)"><path style="fill:#471751" d="M75.838 180.174a29 29 0 0 1 2.292 4.585c.289.741.509 1.502.779 2.248.195.539.468 1.029.962 1.347.565.363 1.266.47 1.908.617l2.72.621 5.57 1.271c.397.091.566-.52.169-.611l-5.051-1.153-2.461-.562c-.759-.173-1.669-.257-2.364-.632-.712-.386-.868-1.155-1.101-1.865a29 29 0 0 0-.786-2.11 29.6 29.6 0 0 0-2.089-4.077c-.213-.346-.762-.028-.548.321"/></g><g style="clip-path:url(#b)"><path style="fill:#471751" d="M85.693 191.643a42.2 42.2 0 0 1 .333 24.209c-.112.393.499.561.611.169a42.84 42.84 0 0 0-.333-24.545c-.122-.388-.733-.222-.611.168"/></g><g style="clip-path:url(#b)"><path style="fill:#471751" d="M50.863 193.954c.934.001 1.878.044 2.811.001.583-.027 1.042-.25 1.274-.81.258-.621.235-1.446.31-2.108.332-2.914.666-5.827.991-8.741.045-.405-.589-.402-.634 0a2919 2919 0 0 1-.915 8.074c-.075.656-.145 1.313-.222 1.969-.074.635-.252.967-.969.985-.881.021-1.766-.002-2.647-.003-.407.001-.407.634.001.634"/></g><g style="clip-path:url(#b)"><path style="fill:#471751" d="M50.992 191.292c.586.394 1.339.263 1.878-.154.709-.548.882-1.473.983-2.313.274-2.273.502-4.552.753-6.828.045-.405-.589-.402-.634 0l-.6 5.444c-.09.82-.093 1.728-.402 2.502-.252.631-.979 1.258-1.659.801-.339-.228-.657.32-.319.547"/></g><g style="clip-path:url(#b)"><path style="fill:#471751" d="M64.898 184.24c-.07.512 1.219 1.255 1.549.99.265-.212.165-1.269-.508-1.464-.447-.13-.998.163-1.041.474"/></g><g style="clip-path:url(#b)"><path style="fill:#471751" d="M59.747 199.324a53 53 0 0 0 7.962 3.482c.387.132.553-.479.169-.611a52 52 0 0 1-7.811-3.418c-.359-.194-.679.353-.32.547"/></g><g style="clip-path:url(#b)"><path style="fill:#471751" d="M68.217 202.114a35 35 0 0 1-6.854.038c-.406-.037-.403.596 0 .634 2.282.211 4.575.198 6.854-.038.402-.042.406-.676 0-.634"/></g><g style="clip-path:url(#b)"><path style="fill:#471751" d="M68.725 202.597a8.1 8.1 0 0 0 3.198-2.508c.105-.135.021-.355-.114-.434-.164-.095-.329-.022-.434.114a7.5 7.5 0 0 1-2.971 2.281c-.157.068-.193.299-.114.434.095.163.276.182.434.114"/></g></g><path style="fill:#70301f" d="M65.213 96.649c-.151-6.725-4.789-12.362-10.874-13.601-6.422-1.308-12.893 2.601-14.886 7.569-.789 1.965-.713 3.687-.622 5.339.366 6.669 4.03 11.69 6.395 14.343"/><path style="fill:#70301f" d="M43.27 86.496c-5.266-1.661-11.281.027-15.392 3.713s-6.403 9.139-6.878 14.64c-.198 2.292-.06 4.746 1.22 6.658 1.894 2.828 6.039 4.149 6.658 7.497.423 2.291-1.09 4.483-2.753 6.116-1.662 1.633-3.621 3.115-4.503 5.271-1.337 3.268.34 7.175 3.105 9.373s6.362 3.021 9.86 3.503c-1.61-2.374-4.875-4.101-4.612-6.958.187-2.033 2.134-3.35 3.734-4.617 5.174-4.098 8.331-11.426 5.755-17.503-1.045-2.466-2.925-4.545-3.73-7.1-1.733-5.504 1.921-11.117 5.382-15.734"/><path style="fill:#a6675c" d="M98.923 119.124c-4.066-.145-5.408-5.467-6.236-8.674-.237-.919-1.827-4.169-.807-4.812 1.607-1.014 2.239 3.562 2.978 3.953 1.425.754 1.22-4.275 1.209-5.019-.017-1.116-.681-5.815.883-6.127a.86.86 0 0 1 .434.027c.528.231.554 1.188.553 3.434-.001.901-.006 3.079.668 4.259.083.145.287.495.497.469.054-.007.237-.054.389-.673.386-1.564-.062-4.222.262-6.309.095-.616.287-2.831 1.242-2.82 1.053.013.86 1.94.821 2.546.004-.062.018-.126.019-.189-.002.74-.596 7.597-.175 7.647.428.051.885-7.306 1.769-7.882 1.252-.817.934 2.59.868 3.261-.063.645-.742 4.541-.381 4.62.195.043.994-2.074 1.141-2.432.249-.606.973-3.034 1.531-1.402.225.655.016 1.847-.072 2.561-.159 1.286-.576 2.537-.778 3.818-.254 1.618-.316 3.291-.725 4.88-.735 2.841-3.075 4.971-6.089 4.863"/><path style="fill:#a6675c" d="M102.745 116.364c-.926-.98-3.194-.827-4.317.283-.566.56-.726 1.25-.779 1.486-.744 3.392-2.429 15.692-3.268 20.325-.366 2.021-.733 3.478-1.474 3.594-.691.108-1.397-1.004-3.326-4.6-3.188-5.945-4.063-8.135-6.44-9.695-.773-.507-1.868-1.055-3.255-1.203-.912-.097-2.518-.268-3.326.566-.941.971.045 2.434 1.274 7.855.881 3.886.821 5.106 2.123 6.723.575.714.807.751 2.265 2.406 1.047 1.189 1.203 1.484 2.689 3.255 1.094 1.303 1.641 1.955 2.477 2.831 1.116 1.169 1.98 1.935 2.831 2.689.835.74 1.574 1.353 2.548 1.981.786.508 1.374.801 2.123.92 0 0 .706.113 1.415 0 2.123-.338 3.821-3.463 4.388-4.529 1.171-2.205 1.852-4.438 2.265-6.794.191-1.091.342-2.309.425-6.723.12-6.451-.161-6.147-.071-11.96.034-2.195-.371-4.392-.212-6.581.094-1.295.243-2.198-.354-2.83m-52.152 10.918c-3.486.346-7.218 1.596-9.017 4.602-1.057 1.766-1.294 3.898-1.323 5.956-.173 12.626 6.566 25.033 4.166 37.429-1.133 5.852-4.25 11.21-5.097 17.11-.477 3.321-.216 6.712-.642 10.04-.381 2.978-1.312 5.922-1.105 8.917.268 3.879 2.582 7.559 5.963 9.481.322.183.734.349 1.042.144.331-.22.31-.708.217-1.094-.482-1.985-1.85-3.63-2.606-5.527s-.647-4.488 1.135-5.485a24.8 24.8 0 0 0 2.5 5.605c1.539-3.178 1.455-7.091-.22-10.199-.409-.759-.909-1.48-1.17-2.302-.298-.942-.261-1.957-.142-2.937 1.21-10.001 10.293-17.947 10.64-28.015.078-2.262-.301-4.513-.679-6.744-1.635-9.661-3.274-19.342-5.894-28.783"/><path style="fill:#7e76db" d="M57.02 148.66a99 99 0 0 1-15.664-2.315c-.415-.096-.862-.214-1.128-.548-.207-.261-.265-.606-.309-.936a28 28 0 0 1 .163-8.525c.415-2.388 1.2-4.817 2.9-6.543 2.01-2.04 4.335-2.137 6.912-2.814 2.047-.539 3.954-1.766 5.99-2.517 13.139-4.852 16.505-8.802 21.112-6.476.194.098.879.397 1.941 1.372l10.247 9.405c.327.3.669.623.792 1.051 0 0 .157.54-.066 1.2-.34 1.009-3.582 7-8.179 15.115 1.961 21.014 3.348 36.413 3.388 37.747.021.722-.243 1.073-.34 1.194-.383.481-1.078.541-1.693.562l-12.145.426c-5.739.202-11.54.398-17.167-.745-.695-.141-1.463-.356-1.822-.968-.301-.513-.223-1.155-.141-1.744a94.5 94.5 0 0 0 .706-18.907c-.141-2.261-.427-4.678-1.909-6.391-1.044-1.208-2.57-1.919-3.619-3.123-1.676-1.925-1.834-4.763-1.346-7.267.759-3.89 1.779-3.743 1.955-7.397.11-2.287-.393-3.119-.078-6.121.145-1.384.281-2.679.76-3.801.599-1.404 1.669-2.382 2.956-3.144"/><path style="fill:#a6675c" d="M48.765 86.323c-3.862 1.428-5.217 5.636-5.671 7.046-1.004 3.118-.593 5.637.023 9.324.59 3.533 1.512 7.083 3.438 10.102s4.988 5.468 8.536 5.961 7.484-1.333 8.817-4.658c.564-1.407.649-2.956.684-4.472.148-6.311-.244-10.53-2.856-15.403-1.454-2.713-3.795-7.081-8.277-8.128-.601-.14-2.545-.569-4.693.226"/><path style="fill:#a6675c" d="M49.146 114.759c3.558 3.279 5.751 7.997 5.963 12.831.028.629.043 1.315.445 1.798.429.515 1.162.637 1.83.681a15.6 15.6 0 0 0 6.091-.819c.71-.246 1.443-.574 1.863-1.197.477-.707.45-1.628.389-2.478a72.5 72.5 0 0 0-3.001-16.09"/><path style="fill:#70301f" d="M46.355 85.672c1.152 4.197 4.315 7.793 8.331 9.471.292.122.674.218.89-.015.386-.416-.33-1.188.038-1.619a66 66 0 0 1 8.577 8.963c.147.186.316.386.55.419.403.057.677-.396.794-.786.534-1.772.257-3.698-.323-5.457-2.288-6.944-9.625-11.862-16.917-11.339"/><path style="fill:#a6675c" d="M44.531 104.23c-.708-1.074-2.364-1.277-3.419-.541s-1.464 2.2-1.128 3.442 1.317 2.245 2.473 2.809 2.472.728 3.758.694"/><g style="opacity:.13"><path style="fill:#471751" d="M52.775 130.608c1.618 2.055 4.377 3.032 6.931 2.515.399-.081.23-.692-.169-.611-2.347.475-4.84-.478-6.315-2.353-.252-.32-.697.131-.447.448"/></g><g style="opacity:.13"><path style="fill:#471751" d="M46.313 146.82a60.6 60.6 0 0 0-.941-10.452c-.071-.401-.682-.231-.611.169a60 60 0 0 1 .918 10.284c.001.407.635.408.634 0"/></g><g style="opacity:.13"><path style="fill:#471751" d="M53.436 118.612c3.676.402 7.435-.983 9.986-3.658.282-.295-.166-.744-.448-.448-2.447 2.566-6.015 3.858-9.538 3.473-.405-.045-.402.589 0 .633"/></g><g style="opacity:.13"><path style="fill:#471751" d="M73.993 130.541a121 121 0 0 0 7.742 13.35c.226.337.774.02.547-.32a121 121 0 0 1-7.742-13.35c-.182-.365-.729-.044-.547.32"/></g><g style="opacity:.13"><path style="fill:#471751" d="M76.937 136.177a7.84 7.84 0 0 1-3.352-2.038c-.285-.293-.733.156-.448.448a8.5 8.5 0 0 0 3.631 2.201c.391.118.558-.493.169-.611"/></g><g style="opacity:.13"><path style="fill:#471751" d="M63.939 150.517c2.569 3.751 7.741 5.35 11.965 3.622.372-.153.21-.765-.169-.611-3.95 1.617-8.829.204-11.249-3.331-.229-.335-.779-.018-.547.319"/></g><g style="opacity:.13"><path style="fill:#471751" d="M102.971 110.507c-2.646.021-5.178 1.484-6.516 3.768-.206.353.341.672.547.32 1.226-2.093 3.543-3.435 5.969-3.454.407-.003.407-.637-.001-.634"/></g><g style="opacity:.13"><path style="fill:#471751" d="M96.129 109.868a17.2 17.2 0 0 0 7.173-1.024c.379-.14.215-.753-.169-.611a16.8 16.8 0 0 1-7.005 1.002c-.406-.029-.405.605.001.633"/></g><g style="opacity:.16"><path style="fill:#471751" d="M57.509 107.21c-.13.221-.267.451-.428.641-.152.18-.338.355-.525.431-.555.226-1.104-.214-1.524-.537-.148-.114-.387-.023-.474.124-.105.179-.025.359.124.473.581.446 1.302.889 2.058.607.638-.238 1.035-.827 1.366-1.39.226-.385-.372-.733-.597-.349"/></g><path style="fill:#ffedff" d="M60.457 108.953c-.371-.306-1.24 1.024-3.55 1.706-2.238.661-3.674.078-3.885.65-.212.575 1.015 1.783 2.391 2.127 1.166.292 2.156-.108 2.518-.279 2.123-1.006 3.013-3.802 2.526-4.204"/><g style="opacity:.16"><path style="fill:#471751" d="M40.939 106.617c.222-.721.99-1.155 1.722-1.103.804.057 1.455.682 1.764 1.39.075.171.326.211.474.124.177-.103.199-.301.124-.473-.415-.956-1.36-1.693-2.418-1.736-1.025-.042-2.028.629-2.332 1.614-.132.427.536.609.667.184"/></g><path style="fill:#471751" d="M57.663 102.773c.097-.649.236-1.293.435-1.918.159-.498.429-.843.956-.953 1.081-.226 1.961.694 2.639 1.392.312.321.802-.17.491-.491-.881-.906-1.949-1.858-3.314-1.571-.613.129-1.077.534-1.319 1.107-.297.705-.445 1.495-.557 2.249-.028.187.047.371.242.427.163.048.399-.056.427-.241m-1.154-6.449q.055-.026.111-.05c.092-.041-.065.025.029-.012l.198-.076q.193-.069.39-.124a6 6 0 0 1 .608-.132l.09-.013q.061-.009-.002 0l.06-.007c.18-.021.356-.145.347-.347-.007-.17-.154-.37-.347-.347a6.1 6.1 0 0 0-1.836.509c-.165.076-.219.328-.124.475.11.17.298.204.475.123"/><path style="fill:#471751" d="M60.115 100.052a1.945 1.945 0 0 0 1.781-1.335.35.35 0 0 0-.242-.427.355.355 0 0 0-.427.242l-.02.059c-.005.013-.031.068-.005.017.028-.054-.006.013-.012.025l-.023.046a2 2 0 0 1-.119.193c-.043.061.052-.061.004-.005l-.033.039a2 2 0 0 1-.161.161l-.039.034c-.056.049.066-.046.005-.003a2 2 0 0 1-.192.122l-.092.046c-.067.033.076-.029.007-.002l-.058.022a2 2 0 0 1-.209.058l-.051.009c-.071.014.077-.007.01-.002l-.124.007c-.181.004-.355.156-.347.347.007.184.152.351.346.347m1.274.924a1.58 1.58 0 0 0 1.307-.334c.342-.279.534-.732.535-1.169 0-.181-.159-.355-.347-.347a.354.354 0 0 0-.347.347q-.001.061-.006.122c-.003.044.014-.079.002-.015l-.013.065a1 1 0 0 1-.033.117l-.019.052c-.026.073.036-.07 0-.001q-.053.104-.119.199c-.024.035.047-.056.006-.009l-.044.05a1 1 0 0 1-.089.084c-.041.035-.019.006.009-.006-.018.007-.038.027-.055.038a1 1 0 0 1-.095.056c-.017.009-.045.018-.06.029.023-.018.063-.025.011-.005q-.057.021-.116.037-.053.013-.108.023c-.073.015.073-.006.004-.001l-.066.004a1 1 0 0 1-.111-.001c-.021-.001-.046-.007-.066-.005l.048.006-.044-.007c-.178-.033-.382.049-.427.242-.039.17.051.392.241.427"/><path transform="rotate(-9.39 111.705 190.548)" style="fill:#471751" d="M60.957 101.644a1.36 2.154 0 0 1-1.36 2.154 1.36 2.154 0 0 1-1.36-2.154 1.36 2.154 0 0 1 2.72 0"/><path style="fill:#471751" d="M52.508 103.553c-.378-.613-.799-1.219-1.285-1.751-.457-.5-1.042-.75-1.719-.648-1.423.214-2.05 1.598-2.51 2.792-.161.417.51.597.669.185.359-.932.833-2.121 1.956-2.297.527-.083.891.195 1.217.577.399.467.752.971 1.074 1.493.235.379.835.031.599-.35M50.51 96.87c-1.774-.039-3.563.753-4.694 2.127-.12.146-.14.347 0 .491.121.124.372.145.491 0a5.32 5.32 0 0 1 4.203-1.924c.446.01.446-.684 0-.694"/><path style="fill:#471751" d="M48.386 101.751a2 2 0 0 1-.217.069q-.055.012-.111.021c-.048.009.066-.005.017-.003l-.063.005a2 2 0 0 1-.227-.003c-.012-.001-.04-.009-.05-.005.025-.01.065.01.004 0l-.111-.023c-.07-.017-.137-.042-.205-.065-.041-.013.06.029.001.001a2 2 0 0 1-.146-.075 2 2 0 0 1-.122-.078c.038.027-.007-.006-.014-.012a2 2 0 0 1-.171-.169c-.119-.137-.37-.132-.491 0-.134.146-.127.344 0 .491.499.572 1.385.795 2.092.514.168-.067.305-.235.242-.427-.053-.163-.246-.314-.427-.242m-.972 1.433a1 1 0 0 1-.109.065l-.051.025c-.036.019.054-.018-.008.003q-.053.019-.108.034l-.069.016c-.008.002-.069.013-.023.005.051-.009-.028.002-.038.003l-.057.003q-.063.002-.127-.004c-.009-.001-.069-.01-.024-.002.051.01-.027-.006-.037-.009a1 1 0 0 1-.119-.033l-.049-.018c-.045-.015.053.027.011.004l-.103-.055-.055-.035-.018-.011c.037.025-.009-.007-.016-.013a1.3 1.3 0 0 1-.145-.143c.029.035-.006-.01-.012-.017a1.2 1.2 0 0 1-.119-.217c-.072-.167-.33-.218-.475-.124-.174.112-.202.295-.124.475.169.391.521.689.921.823.427.144.929.07 1.303-.176.151-.1.23-.311.124-.475-.097-.151-.312-.231-.474-.125"/><path transform="rotate(-13.744 93.2 194.345)" style="fill:#471751" d="M51.076 103.666a1.36 2.154 0 0 1-1.36 2.154 1.36 2.154 0 0 1-1.36-2.154 1.36 2.154 0 0 1 2.72 0"/><path style="fill:#471751" d="M151.587 83.867c-1.703-.225-4.358-.577-7.017.652-2.901 1.339-4.15 3.991-5.129 5.266-7.006 9.131-14.145 18.514-17.565 29.502-.554 1.779-1.008 3.596-1.761 5.301-1.919 4.346-5.615 7.63-8.194 11.62-.206.319-.414.675-.375 1.054.113 1.098 1.761.968 2.764.509-1.837 5.304-.065 11.106 1.703 16.434.366 1.105.988 2.414 2.151 2.464l1.766-2.26c2.572 4.364 6.821 7.71 11.666 9.189 2.038.622 4.16.922 6.281 1.132 8.798.872 18.129.097 25.648-4.555s12.644-13.913 10.42-22.47l3.319 2.451c1.642-2.819-.31-6.295-2.143-8.995a215 215 0 0 1-5.579-8.651c-1.509-2.468-2.989-5.02-3.611-7.844-1.127-5.123.693-10.462.167-15.681-.188-1.863-1.356-7.99-6.479-11.916-3.308-2.534-6.89-3.05-8.034-3.202"/><path style="fill:#ffb4c8" d="M134.571 119.537a116 116 0 0 1-2.808-15.235c-.28-2.414-.485-4.85-.305-7.273.192-2.583.818-5.111 1.303-7.657 2.05-10.741 1.603-21.782 1.149-32.708-.015-.367-.043-.766-.286-1.042-.183-.208-.458-.307-.722-.391a16 16 0 0 0-3.217-.674c-.258-.027-.543-.041-.752.113-.193.142-.27.389-.335.619a510 510 0 0 0-3.033 11.123c-.743 2.854-1.463 5.721-1.875 8.641-.331 2.346-.461 4.714-.59 7.079l-.392 7.141c-.708 12.901-1.399 26.014 1.573 38.588z"/><path style="fill:#ffb4c8" d="M132.707 56.44c2.021-.767 3.663-2.327 4.891-4.107s2.084-3.783 2.931-5.772c.383-.9.769-1.805 1.023-2.75-.427-.345-1.046.016-1.467.369l-3.53 2.952a67 67 0 0 0 .654-14.558c-.034-.525-.079-1.069-.338-1.527s-.792-.805-1.303-.678a46 46 0 0 1-.302 9.223c-.045.333-.101.685-.316.945s-.644.37-.89.139c-.18-.17-.196-.446-.201-.694l-.082-5.124c-.033-2.042-.179-4.341-1.717-5.685-1.427 3.271.715 7.604-1.498 10.405-1.083-2.851-.134-6.55-2.312-8.685-1.214 3.129.366 6.717-.404 9.984-1.855-1.305-.378-5.035-2.403-6.056-.467 1.26-.342 2.652-.211 3.989l1.189 12.147c.143 1.464.304 2.981 1.056 4.245s2.277 2.196 3.689 1.784z"/><path style="fill:#a3a0cf" d="M170.588 217.527c-.038.575-.117 1.215-.564 1.579-.331.27-.786.318-1.211.354-11.812 1.005-23.669 2.01-35.507 1.381-.705-.037-1.445-.091-2.035-.476-.613-.398-.964-1.086-1.271-1.749-5.455-11.835-4.585-26.371 2.244-37.471.725-1.179 1.527-2.363 2.029-3.637 7.979 1.842 16.421 1.632 24.303-.583.37 1.154 1.103 2.172 1.791 3.182 7.425 10.88 11.085 24.278 10.22 37.421"/><path style="fill:#ff5e74" d="M178.839 147.143c-.128.346-.484.542-.815.706a41 41 0 0 1-5.475 2.221 41 41 0 0 1-5.801 1.423c-.89.151-1.852.306-2.482.951-.458.47-.66 1.124-.846 1.754l-.181.618a279 279 0 0 0-1.831 6.546 289 289 0 0 0-2.629 10.623c-.34 1.494-.669 3.054-.313 4.544q.047.199.11.395c-7.883 2.215-16.324 2.425-24.303.583a6.9 6.9 0 0 0 .478-1.936c.121-1.396-.276-2.78-.669-4.126-.866-2.965-1.498-5.353-2.204-7.766a114 114 0 0 0-1.11-3.587 18 18 0 0 0-.35-.992c-1.044-2.683-1.13-4.33-1.541-4.838-2.067-2.551-5.388-5.933-5.175-10.531.141-3.061 2.163-5.337 1.879-8.482-.188-2.078-.759-3.362-1.77-5.897-.921-2.31-2.199-4.211-2.778-5.742-1.049-2.779-2.03-4.351-1.814-4.973.473-1.352 1.679-2.364 3.201-3.179a17 17 0 0 1 1.021-.5c3.385-1.522 7.728-2.335 9.338-3.7l.005-.005c.2-.17 1.044-.957 1.558-.645.228.138.348.401.445.649 1.396 3.618 1.066 8.52 4.483 10.351 1.163.623 2.531.706 3.849.762l.087.004q4.992.209 9.986.163a188 188 0 0 0 3.72-.066c1.683-.046 3.396-.11 5.015.347q.123.034.244.074c1.889.596 3.455 1.84 4.805 3.335.9.995 1.702 2.101 2.441 3.202 1.895 2.827 3.596 5.774 5.202 8.775 1.379 2.569 2.687 5.176 3.994 7.78.181.364.368.78.227 1.162"/><path style="fill:#ffb4c8" d="M142.537 116.78c.637 3.19 1.236 6.678-.283 9.555-.444.842-1.081 1.738-.821 2.653.135.476.496.853.868 1.18 2.763 2.427 6.907 3.155 10.331 1.815.2-.078.402-.166.561-.311.444-.406.412-1.102.353-1.701a73 73 0 0 1-.041-13.994z"/><path style="fill:#ffb4c8" d="M143.632 89.786c-3.319 2.055-5.287 5.842-5.911 9.696s-.057 7.8.754 11.619c.461 2.17 1.078 4.46 2.724 5.948 1.118 1.01 2.584 1.527 4.015 1.997 1.461.479 2.973.94 4.506.826 2.362-.175 4.462-1.727 5.798-3.683s2.01-4.284 2.513-6.598c1.062-4.889 1.399-10.217-.836-14.692s-7.735-7.602-12.387-5.761z"/><path style="fill:#ffb4c8" d="M157.316 110.61c.908.754 2.359.747 3.26-.016.462-.391.769-.935 1.012-1.49.674-1.542.908-3.332.348-4.919-.263-.745-.734-1.464-1.453-1.791s-1.707-.126-2.07.576z"/><path style="fill:#471751" d="M148.063 88.374c.002 1.479-.905 2.813-1.962 3.849s-2.297 1.883-3.263 3.004c-1.617 1.876-2.325 4.34-3.313 6.612s-2.486 4.572-4.844 5.329l1.252-6.791c.196-1.061.392-2.125.709-3.157 1.458-4.747 5.621-8.558 10.477-9.591z"/><path style="fill:#471751" d="M147.672 87.579c-.973 4.359 1.318 9.235 5.294 11.269 1.159.593 2.436.966 3.509 1.702 1.521 1.044 2.478 2.702 3.553 4.202s2.458 2.969 4.276 3.286c-.98-6.596-4.205-12.837-9.019-17.452-2.008-1.925-4.701-3.667-7.401-2.996z"/><path style="fill:#ffb4c8" d="M159.685 125.322a9.2 9.2 0 0 0-1.436 2.45c-.283.719-.945 2.403-.525 4.196.276 1.176.886 1.73 1.556 2.705a18.3 18.3 0 0 1 2.963 7.355c.35 2.115.324 4.272.394 6.415.246 7.501 1.939 15.445 7.255 20.743.762.76 1.611 1.467 2.618 1.849s2.199.395 3.11-.178c.842-.53 1.332-1.469 1.684-2.399 1.285-3.396 1.225-7.183.461-10.733-.763-3.55-2.196-6.915-3.62-10.254-.869-2.037-1.742-4.084-2.923-5.958-1.402-2.226-3.257-4.261-3.895-6.813-.621-2.482.003-5.098-.185-7.649-.07-.958-1.197-4.404-3.268-4.647-1.154-.135-2.177.79-2.671 1.314z"/><g style="opacity:.39"><defs><path id="c" style="opacity:.39" d="M170.588 217.547c-.038.575-.118 1.215-.564 1.579-.331.27-.786.317-1.211.354-11.812 1.005-23.67 2.01-35.507 1.381-.705-.037-1.444-.091-2.036-.476-.612-.398-.964-1.086-1.27-1.749-5.455-11.835-4.585-26.371 2.244-37.471.842-1.367 1.788-2.745 2.246-4.259a66.8 66.8 0 0 0 24.077.009c.367 1.169 1.106 2.195 1.801 3.212 7.425 10.879 11.083 24.278 10.22 37.42"/></defs><clipPath id="d"><use xlink:href="#c" style="overflow:visible"/></clipPath><g style="clip-path:url(#d)"><path style="fill:#412537" d="M141.92 178.997c-.043 1.507-.094 3.013-.107 4.52-.013 1.522-.078 3.121.137 4.631.124.875 1.517 1.611 2.214 2.037 1.074.655 2.205 1.219 3.143 2.071.301.274.75-.173.448-.448-.806-.732-1.739-1.271-2.676-1.817a18 18 0 0 1-1.417-.891c-.553-.397-1.069-.74-1.116-1.447-.193-2.882-.076-5.773.006-8.656.012-.408-.622-.407-.634 0"/></g><g style="clip-path:url(#d)"><path style="fill:#412537" d="m142.044 176.101-.052 1.053a.32.32 0 0 0 .317.317.324.324 0 0 0 .317-.317q.024-.526.052-1.053c.009-.166-.152-.324-.317-.317a.324.324 0 0 0-.317.317"/></g><g style="clip-path:url(#d)"><path style="fill:#412537" d="M146.885 179.158c-.079 6.644.191 13.285.654 19.912.449 6.43 1.239 12.845 2.195 19.221a183 183 0 0 0 1.96 10.875c.085.398.695.23.611-.169-1.369-6.45-2.353-12.972-3.081-19.523-.162-1.458-.444-2.906-.583-4.365-.158-1.661-.274-3.327-.395-4.991a299 299 0 0 1-.562-9.791 216 216 0 0 1-.167-11.169c.005-.407-.628-.407-.633.001"/></g><g style="clip-path:url(#d)"><path style="fill:#412537" d="M146.941 175.601a254 254 0 0 0-.031 1.562c-.003.166.148.324.317.317a.323.323 0 0 0 .317-.317q.013-.781.031-1.562c.004-.166-.148-.324-.317-.317a.323.323 0 0 0-.317.317"/></g><g style="clip-path:url(#d)"><path style="fill:#412537" d="m139.037 199.826 8.753 3.815c.37.161.693-.385.32-.547l-8.754-3.815c-.37-.161-.693.385-.319.547"/></g><g style="clip-path:url(#d)"><path style="fill:#412537" d="M148.626 203.822a21.3 21.3 0 0 0 7.475-5.191c.277-.299-.17-.748-.448-.448a20.6 20.6 0 0 1-7.196 5.028c-.371.154-.209.767.169.611"/></g><g style="clip-path:url(#d)"><path style="fill:#412537" d="M148.195 203.487a11.48 11.48 0 0 0 8.378-.947c.36-.192.041-.739-.32-.547a10.8 10.8 0 0 1-7.89.883c-.394-.107-.562.504-.169.611"/></g><g style="clip-path:url(#d)"><path style="fill:#412537" d="M152.213 178.595c.293 1.551.685 3.116 1.06 4.648.267 1.091.799 2.002 1.971 2.202 3.398.581 6.788 1.237 10.194 1.775.399.063.571-.547.169-.611-3.071-.486-6.114-1.133-9.185-1.621-.667-.106-1.507-.07-1.982-.628-.367-.432-.516-1.071-.619-1.614-.276-1.453-.722-2.866-.996-4.319-.076-.401-.687-.231-.612.168"/></g><g style="clip-path:url(#d)"><path style="fill:#412537" d="M153.816 178.078c.047 1.296.128 2.61.447 3.872.115.454.21.998.601 1.3.436.337 1.041.414 1.564.502 1.327.223 2.659.414 3.993.583.695.089 1.415.124 2.09.319.577.167 1.124.348 1.732.323.406-.017.409-.651 0-.634-.553.023-1.041-.149-1.564-.3s-1.06-.193-1.598-.259a105 105 0 0 1-3.726-.519c-.553-.088-1.146-.132-1.675-.319-.245-.086-.448-.165-.573-.399-.13-.245-.188-.582-.253-.85-.287-1.183-.359-2.405-.404-3.618-.015-.407-.649-.41-.634-.001"/></g><g style="clip-path:url(#d)"><path style="fill:#412537" d="M161.063 186.603a78.5 78.5 0 0 1 3.989 30.696 78 78 0 0 1-1.151 8.939c-.075.398.535.569.611.169a79.2 79.2 0 0 0-.433-31.325 78 78 0 0 0-2.405-8.646c-.131-.383-.743-.219-.611.169"/></g><g style="clip-path:url(#d)"><path style="fill:#412537" d="m137.842 176.45.228-.48a.24.24 0 0 0 .037-.118.24.24 0 0 0-.006-.126.32.32 0 0 0-.146-.189.32.32 0 0 0-.244-.032c-.075.024-.154.072-.189.146l-.228.48a.24.24 0 0 0-.037.118.24.24 0 0 0 .006.126.32.32 0 0 0 .146.189.32.32 0 0 0 .244.032c.075-.024.154-.072.189-.146"/></g><g style="clip-path:url(#d)"><path style="fill:#412537" d="M128.394 186.118c.91.238 1.725.759 2.657.93.974.178 1.683-.135 2.228-.955.343-.516.589-1.089.843-1.652.29-.643.592-1.281.887-1.921.615-1.334 1.227-2.669 1.85-3.999.172-.367-.374-.689-.547-.32-.554 1.184-1.1 2.372-1.647 3.559-.524 1.138-1.006 2.309-1.587 3.42-.217.414-.475.962-.914 1.178-.386.19-.845.115-1.244.01-.812-.214-1.546-.65-2.357-.861-.395-.103-.563.508-.168.611"/></g><g style="clip-path:url(#d)"><path style="fill:#412537" d="M127.901 188.075c1.421.549 2.867 1.072 4.38 1.3.51.077 1.036.223 1.434-.178.452-.455.673-1.209.943-1.781 1.377-2.917 2.698-5.86 4.07-8.779.172-.367-.373-.689-.547-.32-1.223 2.603-2.406 5.223-3.623 7.828a257 257 0 0 1-.898 1.901c-.101.211-.211.616-.43.743-.266.155-.898-.042-1.174-.093-1.372-.254-2.689-.733-3.987-1.234-.38-.147-.545.466-.168.611"/></g><g style="clip-path:url(#d)"><path style="fill:#412537" d="M129.557 189.035c-3.146 11.377 1.422 22.972 5.524 33.469l3.875 9.914c.147.375.759.212.611-.169-2.177-5.569-4.449-11.111-6.469-16.739-1.939-5.402-3.602-11.01-3.907-16.773-.17-3.214.119-6.428.978-9.534.108-.394-.503-.562-.612-.169"/></g><g style="clip-path:url(#d)"><path style="fill:#412537" d="M144.425 180.078c-.518.006-.836.716-.684 1.004.191.361 1.247.307 1.403-.092.118-.301-.234-.917-.719-.911"/></g></g><g style="opacity:.16"><path style="fill:#471751" d="M145.59 110.95c.474.437 1.07.933 1.762.86.686-.073 1.121-.603 1.497-1.129.1-.139.025-.353-.114-.434-.159-.093-.333-.026-.434.114-.24.335-.548.776-.994.819-.494.047-.935-.37-1.27-.678-.299-.277-.748.17-.448.447"/></g><path style="fill:#ffedff" d="M143.907 112.803c.244-.366 1.358.569 3.564.555 2.137-.013 3.241-.906 3.577-.46.338.448-.417 1.832-1.532 2.498-.945.565-1.918.477-2.281.422-2.127-.319-3.649-2.534-3.328-3.015"/><g style="opacity:.13"><path style="fill:#471751" d="M143.431 118.833c2.703 1.471 6.173 1.262 8.659-.564.325-.239.01-.789-.32-.547-2.306 1.693-5.501 1.935-8.02.564-.358-.195-.678.352-.319.547"/></g><g style="opacity:.13"><path style="fill:#471751" d="M159.951 134.533a6.84 6.84 0 0 1-.862-5.101c.09-.397-.521-.566-.611-.169a7.5 7.5 0 0 0 .926 5.589c.215.346.764.028.548-.319"/></g><g style="opacity:.13"><path style="fill:#471751" d="M148.03 149.505c1.501 1.977 3.338 3.834 5.734 4.663 2.175.753 4.716.502 6.494-1.027.31-.266-.14-.713-.448-.448-1.653 1.422-4.057 1.547-6.041.806-2.151-.804-3.831-2.521-5.193-4.313-.243-.321-.794-.006-.547.319"/></g><g style="opacity:.13"><path style="fill:#471751" d="M134.814 46.403c-2.543.89-4.519 3.153-5.007 5.811-.073.398.537.57.611.169.448-2.436 2.22-4.548 4.565-5.368.382-.134.218-.746-.169-.611"/></g><g style="opacity:.13"><path style="fill:#471751" d="M128.06 45.762a11.25 11.25 0 0 0 7.254-1.814c.338-.225.021-.773-.32-.547a10.68 10.68 0 0 1-6.934 1.728c-.405-.039-.403.595 0 .634"/></g><path style="fill:#471751" d="M150.799 105.751a13 13 0 0 1 .956-1.583c.309-.434.672-.738 1.233-.679 1.125.118 1.673 1.292 2.102 2.188.193.403.791.051.599-.35-.553-1.156-1.277-2.398-2.69-2.531-.651-.061-1.224.229-1.625.731-.459.574-.839 1.22-1.174 1.874-.202.397.396.748.599.35m.885-6.453c1.599-.162 3.23.408 4.348 1.569.31.322.801-.169.491-.491a5.98 5.98 0 0 0-4.839-1.772c-.186.019-.347.146-.347.347 0 .173.159.366.347.347"/><path style="fill:#471751" d="M153.998 103.981c.779.241 1.629-.077 2.108-.721.109-.146.029-.394-.124-.475-.181-.096-.358-.031-.475.124-.038.052.03-.033.001-.002l-.032.037a1.4 1.4 0 0 1-.159.154c-.05.042-.017-.003.003-.001-.007-.001-.033.024-.04.029q-.091.063-.19.113l-.055.027c-.042.022.079-.03.003-.001a1.6 1.6 0 0 1-.335.093c.056-.009-.015.001-.027.002a2 2 0 0 1-.221.004l-.049-.003c-.006-.001-.084-.013-.027-.002l-.015-.003-.06-.012-.119-.032c-.173-.053-.386.063-.427.242a.354.354 0 0 0 .242.427m.913 1.289a1.56 1.56 0 0 0 1.393.06c.393-.172.683-.525.819-.926.059-.172-.067-.387-.242-.427a.355.355 0 0 0-.427.242l-.017.048c-.027.077.023-.042 0-.001-.019.034-.034.068-.054.101l-.056.085c-.046.067.032-.034-.001 0l-.034.038a1 1 0 0 1-.081.081l-.038.034c-.061.054.039-.025 0 0a2 2 0 0 1-.198.115c-.042.021.06-.02.011-.005l-.053.018a1 1 0 0 1-.123.031c-.011.002-.089.011-.037.007.047-.004-.015 0-.024.001a1 1 0 0 1-.127.002l-.057-.004c-.068-.004.036.009-.006 0q-.056-.01-.11-.024-.061-.017-.121-.039c.045.015.025.011-.007-.004q-.032-.015-.062-.033c-.159-.087-.386-.044-.475.124-.084.164-.043.382.126.476"/><path transform="rotate(-80.758 286.836 197.477)" style="fill:#471751" d="M155.134 105.318a2.154 1.36 0 0 1-2.154 1.36 2.154 1.36 0 0 1-2.154-1.36 2.154 1.36 0 0 1 4.308 0"/><path style="fill:#471751" d="M145.649 104.842c-.168-.727-.381-1.463-.697-2.141-.267-.573-.755-.973-1.385-1.073-1.397-.22-2.407.813-3.222 1.795-.283.341.205.835.491.491.638-.769 1.452-1.766 2.575-1.612.521.071.809.418.999.883.244.594.426 1.217.57 1.842.1.435.77.251.669-.184m.226-6.956c-1.674-.605-3.618-.407-5.13.534-.378.235-.03.836.35.599 1.369-.852 3.084-1.01 4.595-.464.421.152.602-.518.185-.669"/><path style="fill:#471751" d="M142.302 101.839a2 2 0 0 1-.217-.003c-.011-.008-.041-.007-.054-.01a2 2 0 0 1-.213-.057l-.052-.019c-.071-.025.051.024.011.005a2 2 0 0 1-.205-.108 2 2 0 0 1-.11-.074q-.035-.027 0 0t.001-.001l-.017-.014a2 2 0 0 1-.158-.154l-.043-.05c-.029-.035.006.003.013.018-.018-.035-.047-.067-.069-.1a1 1 0 0 1-.055-.095c-.012-.022-.066-.146-.026-.047-.036-.087-.075-.158-.159-.207a.36.36 0 0 0-.267-.035c-.161.052-.316.247-.242.427a1.97 1.97 0 0 0 .763.922 1.9 1.9 0 0 0 1.099.297c.181-.01.356-.153.347-.347-.007-.179-.152-.357-.346-.347m-1.381 1.053c-.019.005-.105.036-.118.026l-.004-.001a2 2 0 0 1-.182 0q-.03-.005-.06-.006c.037-.001.059.009.009-.001l-.118-.029-.058-.019c-.004-.002-.078-.029-.026-.009.051.019-.014-.007-.025-.013l-.064-.035c-.032-.019-.066-.053-.1-.066.028.01.05.04.008.005l-.042-.038a1 1 0 0 1-.078-.082c-.009-.01-.056-.052-.016-.018.038.034-.005-.007-.013-.02a1 1 0 0 1-.06-.096c-.018-.032-.03-.071-.051-.101.043.063.013.031.001-.001l-.018-.054a1 1 0 0 1-.028-.11c-.002-.009-.003-.051-.01-.056l.006.047-.004-.045c-.014-.18-.149-.356-.347-.347-.175.008-.362.153-.347.347.037.464.258.874.63 1.153.365.274.861.352 1.299.236.175-.046.3-.25.242-.427a.353.353 0 0 0-.427-.243"/><path transform="rotate(-85.118 268.051 195.142)" style="fill:#471751" d="M145.125 104.078a2.154 1.36 0 0 1-2.154 1.36 2.154 1.36 0 0 1-2.154-1.36 2.154 1.36 0 0 1 4.308 0"/><path style="fill:#471751" d="m203.645 197.167-.05 14.513c-.004 1.286.046 2.715.947 3.634.646.659 1.593.903 2.49 1.119 14.221 3.43 29.217 6.82 43.28 2.793.956-.274 1.966-.625 2.559-1.423.649-.873.636-2.053.597-3.139l-.655-18.007"/><g style="opacity:.2"><defs><path id="e" style="opacity:.2" d="m203.645 197.023-.05 14.513c-.004 1.286.046 2.715.947 3.634.646.659 1.593.903 2.49 1.119 14.221 3.43 29.217 6.82 43.28 2.793.956-.274 1.966-.625 2.559-1.423.649-.873.636-2.053.597-3.139l-.655-18.007"/></defs><clipPath id="f"><use xlink:href="#e" style="overflow:visible"/></clipPath><g style="clip-path:url(#f)"><path style="fill:#fff" d="m222.778 195.464.534 7.787c.067.974-.017 1.871.802 2.529.934.75 1.923 1.44 2.914 2.113.338.229.655-.319.32-.547a54 54 0 0 1-2.603-1.871c-.522-.401-.695-.727-.742-1.383l-.123-1.797-.468-6.828c-.028-.405-.662-.408-.634-.001"/></g><g style="clip-path:url(#f)"><path style="fill:#fff" d="M228.044 195.281a259 259 0 0 0-.291 31.551c.021.406.655.408.634 0a259 259 0 0 1 .291-31.551c.029-.407-.605-.405-.634 0"/></g><g style="clip-path:url(#f)"><path style="fill:#fff" d="M218.974 210.954a48 48 0 0 0 7.333 3.879c.515.218 1.043.491 1.618.405.514-.077.95-.414 1.372-.693l3.742-2.479c.339-.224.021-.773-.32-.547l-3.207 2.125c-.495.328-1.162.955-1.782.983-.625.029-1.37-.452-1.921-.696a48 48 0 0 1-6.515-3.525c-.344-.221-.662.327-.319.547"/></g><g style="clip-path:url(#f)"><path style="fill:#fff" d="M228.057 214.553a20 20 0 0 1-3.907.17c-.407-.021-.406.612 0 .634a21 21 0 0 0 4.076-.193c.17-.025.262-.239.221-.39-.051-.182-.22-.246-.39-.221"/></g><g style="clip-path:url(#f)"><path style="fill:#fff" d="m243.129 196.534 1.269 4.446c.317 1.112.422 2.55 1.624 3.043 1.351.554 2.774.971 4.154 1.451l4.481 1.557c.386.134.552-.478.169-.611l-7.894-2.743c-.287-.1-.633-.178-.889-.341-.343-.219-.457-.523-.569-.897-.194-.648-.371-1.301-.557-1.952l-1.176-4.121c-.113-.392-.724-.226-.612.168"/></g><g style="clip-path:url(#f)"><path style="fill:#fff" d="M245.453 195.946q.3 1.813.78 3.587c.252.927.445 1.932 1.41 2.358 1.037.458 2.185.748 3.277 1.043a43 43 0 0 0 3.558.798c.398.073.57-.538.169-.611a43 43 0 0 1-6.331-1.651c-.521-.181-.909-.381-1.118-.92-.188-.485-.308-1.006-.439-1.509a36 36 0 0 1-.693-3.265c-.067-.401-.678-.23-.612.169"/></g><g style="clip-path:url(#f)"><path style="fill:#fff" d="M249.628 205.547a217 217 0 0 1 1.021 15.009c.013.406.647.409.634 0a217 217 0 0 0-1.021-15.009c-.041-.402-.675-.406-.634 0"/></g><g style="clip-path:url(#f)"><path style="fill:#fff" d="M209.407 195.852a17.6 17.6 0 0 0 .055 3.198c.057.513.25 1.099-.135 1.522-.33.363-.754.666-1.132.977a43.5 43.5 0 0 1-5.221 3.666c-.349.21-.031.757.32.547a44.6 44.6 0 0 0 5.622-3.991c.353-.294.779-.586 1.043-.97.258-.375.26-.793.204-1.229a18.7 18.7 0 0 1-.122-3.719c.029-.406-.605-.404-.634.001"/></g><g style="clip-path:url(#f)"><path style="fill:#fff" d="M202.006 203.435a32 32 0 0 0 2.751-1.084c.792-.356 1.761-.702 2.317-1.403 1.056-1.331.14-3.121.487-4.624.092-.397-.519-.566-.611-.169-.17.737-.093 1.479-.03 2.225.059.697.135 1.497-.286 2.103-.457.658-1.439.978-2.139 1.294a30 30 0 0 1-2.658 1.047c-.384.131-.219.743.169.611"/></g><g style="clip-path:url(#f)"><path style="fill:#fff" d="M205.601 203.833a135 135 0 0 0-1.183 15.963c-.006.408.628.408.634 0a135 135 0 0 1 1.183-15.963c.054-.403-.58-.398-.634 0"/></g></g><path style="fill:#471751" d="m245.578 102.905-.412-6.707c-.251-4.079-.618-8.465-3.24-11.599-.993-1.187-2.265-2.124-3.64-2.834-3.365-1.737-7.504-2.09-10.974-.575s-6.101 4.997-6.236 8.781"/><path style="fill:#d78776" d="M247.878 133.31c.992-1.031 2.868-1.911 4.674-1.654 1.519.216 2.589 1.179 3.794 2.639 3.406 4.127 4.508 7.879 4.508 7.879 2.548 8.676 8.867 16.744 12.975 21.989 1.549 1.979 1.814 2.086 9.057 9.571a1369 1369 0 0 1 15.175 15.935l-5.708 4.738c-8.978-4.292-17.3-9.773-24.656-16.238-2.609-2.293-4.64-4.915-5.815-6.284-.558-.651-3.135-3.653-4.921-6.145-3.866-5.394-5.387-10.49-8.271-20.46-2.253-7.789-2.383-10.338-.812-11.971"/><path style="fill:#d78776" d="M292.13 193.596c-.04.751.198 1.626 3.534 5.906.19.245.285.367.317.404 2.056 2.345 4.889 3.232 6.578 3.587.546-1.91-2.637-3.408-2.014-5.298 4.744 2.071 8.762 5.554 11.354 9.844.188.311.436.667.818.674.453.007.735-.475.852-.893.677-2.425-3.457-8.564-3.457-8.564-2.084-2.775-4.009-4.553-12.297-10.4-.836-.59-1.651-1.147-2.573-.961-1.097.221-1.667 1.815-2.519 3.984-.385.979-.578 1.469-.591 1.717M204.507 76.247l-4.528 33.935c-.079.59-.156 1.202.012 1.774.181.615.623 1.113 1.059 1.585a97.6 97.6 0 0 0 14.265 12.702c1.04.757 2.133 1.538 2.73 2.677.947 1.809.406 4.006-.19 5.959-1.188 3.889-2.718 8-6.066 10.309-.731.504-1.609.919-2.48.75-.571-.111-1.063-.459-1.533-.801a123.6 123.6 0 0 1-19.571-17.746c-3.329-3.741-6.605-8.219-6.218-13.211.188-2.426 1.238-4.687 2.172-6.934 4.933-11.861 7.135-25.011 14.325-35.656"/><path style="fill:#d78776" d="M208.593 74.83c2.473-1.402 6.178-3.685 6.573-5.566.045-.213.22-.985-.055-1.05-.17-.04-.339.055-.488.144a20.3 20.3 0 0 1-3.637 1.709c-.225.08-.521.137-.665-.054-.082-.108-.077-.257-.064-.391.039-.397.124-.789.253-1.167.207-.606.526-1.166.833-1.729a60 60 0 0 0 4.337-9.992c.338-1.025.646-2.15.267-3.161-.987.479-1.57 1.498-2.161 2.422a23.7 23.7 0 0 1-3.597 4.371c-.091.087-.195.178-.321.178-.33.001-.317-.507-.174-.804 1.3-2.709 3.545-5.095 3.806-8.089.012-.134.013-.286-.08-.384-.099-.103-.266-.101-.404-.062-.476.134-.786.578-1.056.992l-4.31 6.599c-.341-.14-.37-.611-.304-.974.413-2.282 2.268-4.176 2.374-6.493.016-.353-.051-.772-.367-.927-.187-.092-.414-.059-.606.023-.484.207-.792.681-1.046 1.142-1.082 1.966-1.75 4.213-3.299 5.837-.126.132-.286.27-.467.243-.35-.051-.327-.563-.211-.897a46 46 0 0 0 1.002-3.267c.062-.235.124-.482.07-.719s-.261-.459-.504-.441c-.138.01-.26.092-.366.179-.829.682-1.135 1.793-1.478 2.81-1.12 3.323-3.065 6.296-4.553 9.471-.645 1.376-1.21 2.813-1.383 4.323s.077 3.112.949 4.357c.969 1.385 2.329 1.91 3.435 2.336.764.293 2.295.861 4.179.579.737-.111 1.362-.327 3.518-1.55"/><path style="fill:#7e76db" d="M214.503 123.676c5.875 3.619 24.715 1.662 34.251 1.749 1.149.011 3.863.021 5.881 1.858 1.102 1.004 1.698 2.431 2.299 3.796a81.7 81.7 0 0 0 13.177 20.743c.434.498.897 1.043.935 1.701.031.539-.229 1.047-.499 1.515-2.972 5.156-7.916 9.142-13.586 10.951a291 291 0 0 0-.677 39.626c-8.748-4.207-18.802-4.642-28.505-4.374s-19.516 1.15-29.046-.695c1.732-6.237 2.487-12.697 3.236-19.125l3.121-26.795c.504-4.329.69-9.481-2.734-12.177-1.129-.889-2.524-1.376-3.693-2.212-.497-.356-.979-.825-1.064-1.43-.098-.7.262-1.294.362-1.461 1.715-2.851 5.709-20.636 9.354-20.225.877.099.778 1.144 3.123 3.454.001 0 1.621 1.597 4.066 3.102"/><path style="fill:#d78776" d="M220.775 88.869c-.619.957-.891 2.217-1.194 4.729a73 73 0 0 0-.517 7.781c-.048 3.871.229 7.813 1.595 11.436s3.937 6.924 7.482 8.48 8.088 1.055 10.766-1.741c1.295-1.352 2.084-3.114 2.629-4.905 1.853-6.091 1.096-12.714-.758-18.805-1.124-3.693-2.251-5.114-2.739-5.718-.747-.925-3.332-4.127-7.79-4.717-3.2-.423-7.542.476-9.473 3.461"/><path style="fill:#d78776" d="M241.902 101.825c.3-.879.641-1.789 1.324-2.419s1.815-.874 2.542-.295c.306.244.504.598.66.957a6.24 6.24 0 0 1-.082 5.064 6.23 6.23 0 0 1-3.856 3.284m-15.962 10.094a17.44 17.44 0 0 1-1.174 11.927c-.21.431-.441.867-.489 1.343-.069.686.254 1.353.651 1.917 2.266 3.221 6.74 3.995 10.664 3.655 1.914-.165 4.185-.857 4.646-2.722.219-.885-.052-1.808-.296-2.686a50.5 50.5 0 0 1-1.837-14.453"/><path style="fill:#471751" d="M226.37 82.633a9.15 9.15 0 0 0-6.999 1.538c-.908.653-1.689 1.47-2.596 2.124a9.1 9.1 0 0 1-4.388 1.66c1.505 1.276 3.689 1.229 5.659 1.116a7.95 7.95 0 0 1-4.013 2.773 6.7 6.7 0 0 0 5.256.484 6.77 6.77 0 0 1-1.863 4.121 14.3 14.3 0 0 0 6.241-3.615l.528 2.883c.04.217.098.462.291.57.218.122.488.006.702-.123 1.667-1.006 2.778-2.877 2.862-4.822.428-.128.764.383.865.819s.198.971.621 1.117c.524.181.974-.415 1.166-.935a8.2 8.2 0 0 0 .496-2.406c.018-.338.079-.765.406-.853.41-.11.657.42.931.743.699.823 2.179.298 2.636-.68s.221-2.124-.025-3.175"/><g style="opacity:.13"><path style="fill:#471751" d="M227.903 121.526c3.263.852 6.797.299 9.637-1.523.342-.22.025-.768-.32-.547a11.6 11.6 0 0 1-9.149 1.459c-.395-.103-.563.508-.168.611"/></g><g style="opacity:.13"><path style="fill:#471751" d="M245.361 100.503c-.763-.381-1.665-.095-2.24.492-.629.643-.83 1.567-1 2.419-.034.167.048.342.221.39.156.043.356-.053.39-.221.139-.697.274-1.494.755-2.051.198-.229.454-.415.739-.507.277-.09.558-.103.815.026.153.076.343.041.434-.114.082-.14.039-.356-.114-.433"/></g><g style="opacity:.13"><path style="fill:#471751" d="M208.242 66.355c-3.126-1.055-6.847.482-8.314 3.439-.181.364.366.685.547.32 1.348-2.718 4.723-4.118 7.598-3.148.388.13.554-.482.169-.611"/></g><g style="opacity:.13"><path style="fill:#471751" d="M209.215 64.322a46 46 0 0 0-6.693-3.62c-.37-.162-.693.384-.32.547a46 46 0 0 1 6.693 3.62c.342.223.66-.325.32-.547"/></g><g style="opacity:.13"><path style="fill:#471751" d="M251.943 140.484a70 70 0 0 0 4.25 24.113c.139.38.751.216.611-.169a69.5 69.5 0 0 1-4.227-23.944c0-.407-.634-.408-.634 0"/></g><g style="opacity:.13"><path style="fill:#471751" d="M210.958 133.468a75.2 75.2 0 0 0-5.838 16.561c-.09.397.521.566.611.169a74.5 74.5 0 0 1 5.774-16.41c.179-.365-.367-.686-.547-.32"/></g><g style="opacity:.13"><path style="fill:#471751" d="M221.268 130.244c-.73 2.981.495 6.229 2.993 8.005.333.237.65-.313.32-.547-2.26-1.606-3.359-4.602-2.702-7.29.097-.395-.514-.564-.611-.168"/></g><g style="opacity:.13"><path style="fill:#471751" d="M235.593 140.695c2.337.08 4.56-1.487 5.303-3.697.13-.387-.482-.554-.611-.169-.655 1.948-2.645 3.301-4.692 3.231-.407-.014-.407.62 0 .634"/></g><path transform="rotate(-2.144 418.915 196.909)" style="fill:#4c113d" d="M224.855 105.228a1.258 1.993 0 0 1-1.258 1.992 1.258 1.993 0 0 1-1.258-1.992 1.258 1.993 0 0 1 2.516 0"/><path style="fill:#4c113d" d="M226.141 105.665c-.235-.645-.506-1.305-.873-1.887-.323-.513-.8-.827-1.412-.855-1.308-.059-2.127 1.062-2.757 2.044-.213.333.317.642.53.31.497-.777 1.124-1.749 2.164-1.742.5.004.804.292 1.037.709.284.507.52 1.039.719 1.585.135.367.728.209.592-.164m.595-5.976c-2.172-1.163-5.082-.544-6.581 1.409-.24.313.292.619.53.31 1.29-1.681 3.892-2.18 5.742-1.189.348.186.658-.343.309-.53m7.406 5.836a11 11 0 0 1 .591-1.637c.2-.431.473-.757.971-.806 1.033-.101 1.745.819 2.298 1.553.1.133.263.199.42.11.131-.075.21-.287.11-.42-.701-.931-1.589-1.993-2.889-1.851-.606.067-1.076.402-1.359.94-.321.609-.547 1.285-.733 1.946-.107.381.484.543.591.164m-1.538-5.384c1.848-1.287 4.573-1.07 6.095.628.264.294.697-.14.434-.434-1.693-1.888-4.778-2.159-6.839-.724-.321.224-.015.756.31.53"/><path transform="rotate(-2.144 442.237 196.012)" style="fill:#4c113d" d="M237.306 104.756a1.258 1.993 0 0 1-1.258 1.992 1.258 1.993 0 0 1-1.258-1.992 1.258 1.993 0 0 1 2.516 0"/><g style="opacity:.13"><path style="fill:#4c113d" d="M232.202 110.729c-.399.52-.898 1.153-1.583 1.273-.738.13-1.355-.482-1.833-.953-.252-.249-.641.14-.389.389.625.616 1.371 1.253 2.313 1.103.862-.138 1.468-.884 1.966-1.535.091-.119.018-.307-.099-.376-.141-.085-.286-.019-.376.098"/></g><path style="fill:#ffedff" d="M235.557 113.27c-.25-.338-1.742 1.085-4.771 1.612-2.894.503-4.917-.207-5.031.219-.1.373 1.388 1.165 2.675 1.518.569.156 1.735.462 3.071.163 2.597-.579 4.354-3.108 4.056-3.511"/><path style="fill:#ffc6c5" d="m321.942 110.184-3.356 8.759c-2.545 6.641-5.167 13.417-9.742 18.862 7.606-2.339 11.883-10.784 19.251-13.791a38.9 38.9 0 0 1-2.571 18.994c-.333.823-.711 1.658-1.356 2.268-.511.483-1.158.793-1.798 1.084a62.64 62.64 0 0 1-27.653 5.571c-.403-.012-.845-.044-1.133-.324-.237-.23-.313-.577-.369-.902-1.354-7.943 2.879-15.69 7.295-22.43 5.422-8.276 11.439-16.291 19.031-22.635"/><path style="fill:#7e76db" d="M321.953 189.898a82.5 82.5 0 0 0 2.794 26.477c.193.705.423 1.451.985 1.918.505.421 1.189.541 1.838.642a179 179 0 0 0 36.913 1.87c.35-.019.73-.05.992-.283.315-.281.35-.752.363-1.173a177 177 0 0 0-.894-23.726"/><g style="opacity:.27"><defs><path id="g" style="opacity:.27" d="M321.953 189.898a82.5 82.5 0 0 0 2.794 26.477c.193.705.423 1.451.985 1.918.505.421 1.189.541 1.838.642a179 179 0 0 0 36.913 1.87c.35-.019.73-.05.992-.283.315-.281.35-.752.363-1.173a177 177 0 0 0-.894-23.726"/></defs><clipPath id="h"><use xlink:href="#g" style="overflow:visible"/></clipPath><g style="clip-path:url(#h)"><path style="fill:#471751" d="m339.899 190.565.806 9.103.198 2.243c.046.525.037 1.119.314 1.586.309.523.873.862 1.343 1.226l1.823 1.41c.326.252.788-.203.459-.459l-1.621-1.253c-.513-.397-1.302-.819-1.538-1.458-.228-.615-.166-1.456-.224-2.107l-.175-1.979-.736-8.311c-.037-.413-.686-.417-.649-.001"/></g><g style="clip-path:url(#h)"><path style="fill:#471751" d="M344.656 190.762v32.095c0 .417.649.418.649 0v-32.095c-.001-.417-.649-.418-.649 0"/></g><g style="clip-path:url(#h)"><path style="fill:#471751" d="M336.928 209.326a25.4 25.4 0 0 0 7.548 4.391c.392.145.561-.482.172-.625a24.5 24.5 0 0 1-7.262-4.224c-.317-.268-.778.189-.458.458"/></g><g style="clip-path:url(#h)"><path style="fill:#471751" d="M344.979 213.178a58 58 0 0 1-6.036-.069c-.417-.027-.415.622 0 .649q3.016.191 6.036.069c.416-.017.418-.666 0-.649"/></g><g style="clip-path:url(#h)"><path style="fill:#471751" d="M344.924 213.359a5.3 5.3 0 0 1 2.583-.476c.175.011.324-.157.324-.324 0-.185-.149-.313-.324-.324a6 6 0 0 0-2.911.564c-.158.074-.199.302-.116.444.095.162.285.191.444.116"/></g><g style="clip-path:url(#h)"><path style="fill:#471751" d="M356.335 193.875a139 139 0 0 0 .099 8.714c.029.692-.067 1.594.338 2.202.401.602 1.219.863 1.837 1.162l2.582 1.25 5.282 2.556c.374.181.703-.378.327-.56l-4.695-2.272-2.347-1.136-1.174-.568c-.393-.19-.934-.367-1.207-.721-.461-.596-.293-1.847-.321-2.573a141 141 0 0 1-.072-8.054c.008-.418-.641-.418-.649 0"/></g><g style="clip-path:url(#h)"><path style="fill:#471751" d="m357.483 193.498.006 5.286c.001.848-.016 1.698.004 2.546.013.573.137 1.044.596 1.417 1.225.997 2.786 1.742 4.185 2.463a49 49 0 0 0 4.581 2.06c.389.152.557-.475.172-.625a46 46 0 0 1-8.067-4.087c-.329-.21-.705-.425-.792-.834-.076-.356-.027-.772-.028-1.134l-.003-2.321-.006-4.771c-.001-.418-.65-.418-.649-.001"/></g><g style="clip-path:url(#h)"><path style="fill:#471751" d="m362.298 207.491.173 16.534c.004.417.653.418.649 0l-.173-16.534c-.004-.417-.653-.418-.649 0"/></g><g style="clip-path:url(#h)"><path style="fill:#471751" d="M326.998 188.931a49.5 49.5 0 0 0-.605 9.471c.012.414.047.844-.139 1.229-.154.318-.407.54-.667.773-.591.529-1.19 1.049-1.786 1.573l-3.77 3.322c-.314.276.146.733.459.459l3.869-3.409c.609-.537 1.232-1.061 1.828-1.612.423-.391.738-.813.827-1.396.118-.772 0-1.598-.005-2.377a46 46 0 0 1 .049-2.485 47 47 0 0 1 .566-5.375c.067-.407-.558-.583-.626-.172"/></g><g style="clip-path:url(#h)"><path style="fill:#471751" d="m321.977 206.183 4.359-3.053c.561-.393 1.213-.764 1.641-1.311.429-.55.516-1.276.653-1.939a124 124 0 0 0 1.671-10.29c.05-.413-.599-.41-.649 0a122 122 0 0 1-1.543 9.605c-.142.704-.196 1.596-.625 2.192-.431.598-1.207.996-1.803 1.413l-4.033 2.824c-.339.237-.015.799.327.559"/></g><path style="clip-path:url(#h);fill:#471751" d="M343.673 194.964a1.09 1.09 0 0 1-1.09 1.089 1.09 1.09 0 0 1-1.089-1.089 1.089 1.089 0 0 1 2.179 0"/></g><path style="fill:#471751" d="M370.493 147.861a69 69 0 0 0-.442-9.43c-.266-2.293-.683-4.661-2.014-6.546-1.602-2.267-4.287-3.497-6.933-4.332-8.737-2.758-18.156-2.274-27.138-4.081-1.733-.349-3.539-.781-5.242-.307-1.22.34-2.263 1.116-3.276 1.876l-10.29 7.725c-.417.313-.848.643-1.079 1.11-.276.558-.221 1.215-.156 1.834a131 131 0 0 0 1.991 12.758c.108.522.241 1.082.644 1.432 1.15.999 2.852-.628 4.364-.44a255 255 0 0 0 1.222 45.399 110 110 0 0 0 19.396 4.285 110.2 110.2 0 0 0 24.213.41 1331 1331 0 0 1 2.539-24.453"/><path style="fill:#ead9ea" d="m339.305 177.66-9.154-10.795a5.954 5.954 0 0 1 .691-8.391l17.588-14.914a5.954 5.954 0 0 1 8.391.691l9.154 10.795a5.954 5.954 0 0 1-.691 8.391l-17.588 14.914a5.954 5.954 0 0 1-8.391-.691"/><path style="fill:#ffc6c5" d="M346.897 162.593c1.499 3.771 4.385 9.223 9.902 13.556 6.954 5.462 12.745 4.98 13.47 4.83.647-.133 1.316-.339 1.792-.851.39-.421.609-1.009.728-1.603.732-3.665-3.607-8.583-3.607-8.583-5.234-6.099-13.521-9.572-17.206-10.947"/><path style="fill:#ffc6c5" d="M372.911 176.412a284 284 0 0 0-1.758-31.398c-.059-.524-.133-1.081-.475-1.482-.467-.547-1.271-.625-1.99-.644a39 39 0 0 0-7.574.543c-.561.096-1.145.216-1.584.577-.815.67-.843 1.888-.793 2.942a177 177 0 0 0 3.115 25.629m-16.926-83.936c-1.411.115-2.693.941-3.618 2.013s-1.534 2.376-2.062 3.689a40 40 0 0 0-2.873 14.562c-.03 3.877.778 8.225 3.96 10.44 2.275 1.584 5.241 1.693 8.01 1.571.953-.042 1.929-.111 2.796-.506.98-.446 1.734-1.27 2.387-2.126 3.701-4.852 4.902-11.158 5.26-17.251.143-2.431.126-5.031-1.191-7.079-.732-1.139-1.812-2.01-2.934-2.769-3.462-2.344-8.106-3.779-11.784-1.79"/><path style="fill:#ffc6c5" d="M357.902 105.326a9.7 9.7 0 0 1 1.822-1.443c.313-.191.649-.369 1.014-.395.63-.044 1.223.393 1.519.951s.34 1.217.303 1.848c-.105 1.781-.862 3.556-2.228 4.703s-3.359 1.58-5.01.905m-15.06 5.874a31.2 31.2 0 0 1 .34 11.428c-.062.401-.133.811-.055 1.209.196 1.006 1.239 1.593 2.206 1.933a14 14 0 0 0 4.991.788c.726-.019 1.476-.102 2.102-.47 1.38-.812 1.679-2.647 1.784-4.245.281-4.274.213-8.563.146-12.845m-25.533-3.563c2.455-1.127 6.147-2.987 6.675-4.736.06-.198.289-.915.033-.998-.157-.052-.325.025-.474.097a19.4 19.4 0 0 1-3.582 1.323c-.22.057-.505.087-.626-.105-.069-.109-.052-.249-.029-.375q.104-.561.334-1.084c.246-.557.593-1.062.929-1.569a57 57 0 0 0 4.916-9.108c.403-.942.787-1.983.509-2.97-.973.374-1.607 1.291-2.242 2.118a22.6 22.6 0 0 1-3.76 3.846c-.093.075-.199.153-.318.143-.313-.027-.259-.505-.1-.775 1.451-2.459 3.77-4.536 4.259-7.349.022-.126.036-.27-.045-.37-.086-.106-.244-.117-.378-.092-.461.088-.791.483-1.081.853l-4.615 5.898c-.312-.161-.3-.609-.209-.947.576-2.127 2.486-3.77 2.775-5.955.044-.332.015-.735-.273-.908-.17-.102-.387-.09-.575-.028-.475.156-.805.581-1.083.997-1.184 1.773-1.998 3.846-3.597 5.259-.13.115-.293.232-.462.193-.327-.077-.264-.559-.127-.866a43 43 0 0 0 1.213-3.012c.078-.218.156-.446.124-.675s-.21-.455-.442-.459c-.131-.002-.253.066-.361.14-.841.578-1.22 1.605-1.627 2.54-1.33 3.054-3.412 5.712-5.079 8.597-.722 1.25-1.374 2.565-1.661 3.98s-.179 2.953.545 4.202c.805 1.389 2.05 1.998 3.063 2.49.699.34 2.103 1.002 3.909.887.709-.045 1.319-.199 3.459-1.182m18.55 31.596a18.6 18.6 0 0 1 3.686 4.85c.744 1.413 1.423 3.045 2.891 3.716.138.063.294.117.439.074.286-.084.34-.453.34-.746l.005-4.838c0-.187.004-.386.105-.543.189-.295.65-.31.946-.121.297.19.466.519.606.839 1.481 3.354 1.397 7.145 1.288 10.799-.022.735-.046 1.484-.297 2.177-.321.89-.988 1.617-1.708 2.241a13.3 13.3 0 0 1-2.753 1.843c-.686.345-1.434.636-2.203.59-.804-.049-1.535-.46-2.203-.902-3.605-2.391-6.306-6.069-7.479-10.185-.285-.999-.484-2.042-.367-3.073.037-.328.12-.677.373-.894s.722-.204.862.096c-.044-.437-.085-.895.087-1.3.173-.405.635-.727 1.06-.591.017-.462.038-.938.231-1.359s.605-.781 1.075-.774c.17.002.355.048.5-.041.119-.073.17-.215.22-.345.359-.933 1.329-1.793 2.299-1.501"/><g style="opacity:.18"><defs><path id="i" style="opacity:.18" d="M344.793 143.601a18.6 18.6 0 0 1 3.686 4.85c.744 1.413 1.423 3.045 2.891 3.716.138.063.294.117.439.074.286-.084.34-.453.34-.746l.005-4.838c0-.187.004-.386.105-.543.189-.295.65-.31.946-.121.297.19.466.519.606.839 1.481 3.354 1.397 7.145 1.288 10.799-.022.735-.046 1.484-.297 2.177-.321.89-.988 1.617-1.708 2.241a13.3 13.3 0 0 1-2.753 1.843c-.686.345-1.434.636-2.203.59-.804-.049-1.535-.46-2.203-.902-3.605-2.391-6.306-6.069-7.479-10.185-.285-.999-.484-2.042-.367-3.073.037-.328.12-.677.373-.894s.722-.204.862.096c-.044-.437-.085-.895.087-1.3.173-.405.635-.727 1.06-.591.017-.462.038-.938.231-1.359s.605-.781 1.075-.774c.17.002.355.048.5-.041.119-.073.17-.215.22-.345.359-.933 1.329-1.793 2.299-1.501"/></defs><clipPath id="j"><use xlink:href="#i" style="overflow:visible"/></clipPath><g style="clip-path:url(#j)"><path style="fill:#471751" d="m345.957 150.371-3.49-6.181c-.203-.36-.759-.037-.555.324l3.49 6.181c.203.361.759.037.555-.324"/></g><g style="clip-path:url(#j)"><path style="fill:#471751" d="M340.111 146.778c-.029.547.202 1.053.415 1.544q.318.733.71 1.431a16.5 16.5 0 0 0 1.829 2.609c.269.315.722-.141.454-.454a15.5 15.5 0 0 1-2.324-3.652c-.209-.459-.469-.961-.442-1.477.022-.414-.621-.413-.643-.001"/></g><g style="clip-path:url(#j)"><path style="fill:#471751" d="M338.513 148.726a39.5 39.5 0 0 0 2.731 5.719c.208.357.764.034.555-.324a38.4 38.4 0 0 1-2.666-5.565c-.147-.382-.768-.217-.62.171"/></g></g><path style="fill:#471751" d="M357.409 128.647c5.323-.398 8.461 1.34 9.755 2.202 6.396 4.262 5.893 12.554 8.085 17.708.092.217.334.836.167 1.517-.218.889-1.166 1.361-2.017 1.697a58.7 58.7 0 0 1-14.788 3.704c-.323.037-.685.061-.937-.145-.267-.218-.303-.605-.319-.95-.045-.986-.389-11.474-.953-26.005"/><path style="fill:#70301f" d="M335.774 97.916c-1.307 1.53-1.765 3.148-2.042 3.471-.018.021-.093.109-.08.205.014.101.122.158.218.194 2.099.802 4.472-.147 6.298-1.457l-.162 2.234c-.006.083-.01.174.043.239.059.073.164.083.258.082.476-.006.939-.159 1.38-.34a10.6 10.6 0 0 0 4.45-3.467c.16-.216.318-.462.296-.73-.026-.312-.288-.549-.552-.717-.917-.585-1.997-.659-2.73-.804-1.958-.388-1.871-1.511-3.238-1.604-1.736-.117-3.207 1.605-4.137 2.693m20.783 1.333c-1.01 1.324-.722 3.209-.204 4.791s1.229 3.215.909 4.849c1.649-.789 2.739-2.622 2.644-4.447s-1.367-3.536-3.09-4.15"/><path style="fill:#ff5e74" d="M363.644 100.611c1.111-1.159 1.578-2.819 1.602-4.425.023-1.606-.354-3.188-.729-4.75l-.894-3.729c-.247-1.031-.506-2.087-1.097-2.968-.951-1.416-2.657-2.182-4.352-2.373s-3.403.121-5.074.463c-2.566.525-5.156 1.137-7.45 2.401s-4.291 3.271-5.002 5.792"/><g style="opacity:.22"><defs><path id="k" style="opacity:.22" d="M363.644 100.611c1.111-1.159 1.578-2.819 1.602-4.425.023-1.606-.354-3.188-.729-4.75l-.894-3.729c-.247-1.031-.506-2.087-1.097-2.968-.951-1.416-2.657-2.182-4.352-2.373s-3.403.121-5.074.463c-2.566.525-5.156 1.137-7.45 2.401s-4.291 3.271-5.002 5.792"/></defs><clipPath id="l"><use xlink:href="#k" style="overflow:visible"/></clipPath><g style="clip-path:url(#l)"><path style="fill:#471751" d="M343.327 92.749a114 114 0 0 1 4.313-10.543c.176-.375-.382-.705-.56-.327a115 115 0 0 0-4.379 10.699c-.138.395.488.564.626.172"/></g><g style="clip-path:url(#l)"><path style="fill:#471751" d="M345.349 92.732a66 66 0 0 1 3.745-9.711c.18-.374-.379-.704-.56-.327a67 67 0 0 0-3.81 9.866c-.119.402.506.573.625.173"/></g><g style="clip-path:url(#l)"><path style="fill:#471751" d="M346.956 93.73c.707-1.94 1.387-3.893 2.156-5.81a36 36 0 0 1 1.298-2.897q.322-.636.679-1.252c.237-.409.526-1.051 1.082-1.011.417.03.414-.618 0-.649-.928-.068-1.408.913-1.794 1.597a31 31 0 0 0-1.548 3.207c-.919 2.179-1.69 4.421-2.499 6.643-.142.393.484.562.626.172"/></g><g style="clip-path:url(#l)"><path style="fill:#471751" d="M348.87 94.794a409 409 0 0 1 5.797-13.435c.171-.377-.388-.707-.56-.327a414 414 0 0 0-5.862 13.589c-.158.386.468.554.625.173"/></g><g style="clip-path:url(#l)"><path style="fill:#471751" d="M350.011 95.582c1.14-2.462 2.282-4.926 3.554-7.325a60 60 0 0 1 1.981-3.475 48 48 0 0 1 1.051-1.628c.322-.476.982-1.796 1.616-1.861.411-.042.415-.691 0-.649-.515.053-.824.317-1.136.717-.442.566-.844 1.169-1.242 1.767a54 54 0 0 0-2.37 3.947c-1.459 2.665-2.738 5.424-4.014 8.18-.174.377.385.707.56.328"/></g><g style="clip-path:url(#l)"><path style="fill:#471751" d="M351.37 96.046c1.441-2.647 2.855-5.311 4.33-7.94 1.335-2.381 2.812-4.697 4.838-6.555.308-.283-.151-.74-.459-.459-2.007 1.841-3.497 4.131-4.828 6.487-1.52 2.69-2.965 5.425-4.442 8.139-.199.366.361.694.561.327"/></g><g style="clip-path:url(#l)"><path style="fill:#471751" d="m353.241 96.545 4.439-8.073c.639-1.162 1.234-2.365 1.962-3.474.68-1.036 1.593-2.067 2.898-2.21.41-.045.415-.694 0-.649-2.605.285-3.802 3.063-4.911 5.082l-4.947 8.996c-.201.366.359.694.56.327"/></g><g style="clip-path:url(#l)"><path style="fill:#471751" d="M355.061 97.631a56.5 56.5 0 0 1 9.241-13.403c.284-.306-.174-.765-.459-.459a57.1 57.1 0 0 0-9.342 13.534c-.185.373.375.702.56.327"/></g><g style="clip-path:url(#l)"><path style="fill:#471751" d="M356.379 98.555c2.048-4.445 4.41-9.145 8.888-11.579.367-.199.04-.759-.327-.56-4.579 2.489-7.025 7.263-9.121 11.811-.173.377.386.706.561.327"/></g><g style="clip-path:url(#l)"><path style="fill:#471751" d="M357.995 99.318c1.109-1.694 2.198-3.403 3.333-5.08.999-1.475 2.113-2.907 3.633-3.876.351-.223.026-.785-.327-.56-1.53.975-2.677 2.38-3.695 3.859-1.205 1.75-2.34 3.551-3.503 5.329-.229.351.332.676.561.328"/></g><g style="clip-path:url(#l)"><path style="fill:#471751" d="M359.613 100.253a40 40 0 0 1 2.734-4.551 38 38 0 0 1 1.611-2.153c.527-.654 1.067-1.309 1.843-1.671.378-.177.049-.735-.327-.56-.753.351-1.311.959-1.829 1.593a40 40 0 0 0-4.592 7.015c-.191.371.369.699.56.327"/></g><g style="clip-path:url(#l)"><path style="fill:#471751" d="M361.602 99.908a33.6 33.6 0 0 1 4.781-6.861c.279-.309-.178-.769-.459-.459a34.3 34.3 0 0 0-4.882 6.992c-.194.369.365.697.56.327"/></g><g style="clip-path:url(#l)"><path style="fill:#471751" d="M362.803 101.053a8.58 8.58 0 0 1 3.804-5.147c.355-.218.03-.779-.327-.56a9.23 9.23 0 0 0-4.101 5.534c-.105.405.521.577.625.173"/></g><g style="clip-path:url(#l)"><path style="fill:#471751" d="M341.874 91.451a24 24 0 0 1 1.211-4.747c.144-.393-.483-.562-.625-.172a24.2 24.2 0 0 0-1.211 4.747c-.026.174.044.346.227.399.152.043.372-.054.398-.227"/></g></g><path style="fill:#ff5e74" d="M363.87 100.843c-.983 1.299-.362 2.566-1.371 4.532-.133.259-.3.485-.574.66-.593.378-1.403.09-1.92-.387s-.86-1.114-1.361-1.608c-1.453-1.435-3.764-1.329-5.754-1.786s-3.767-1.539-5.649-2.329a20.2 20.2 0 0 0-6.965-1.552c-.735-.03-1.486-.022-2.185-.254s-1.351-.764-1.491-1.486c-.157-.807.353-1.594.937-2.172s1.283-1.071 1.679-1.791c.466-.846.466-1.925 1.077-2.673.625-.764 1.744-.963 2.709-.757s1.82.745 2.667 1.251a55.4 55.4 0 0 0 15.877 6.418c.611.142 2.745.272 3.118 1.358.154.449.044 1.149-.187 1.68-.19.436-.402.622-.61.897"/><g style="opacity:.31"><defs><path id="m" style="opacity:.31" d="M363.87 100.843c-.983 1.299-.362 2.566-1.371 4.532-.133.259-.3.485-.574.66-.593.378-1.403.09-1.92-.387s-.86-1.114-1.361-1.608c-1.453-1.435-3.764-1.329-5.754-1.786s-3.767-1.539-5.649-2.329a20.2 20.2 0 0 0-6.965-1.552c-.735-.03-1.486-.022-2.185-.254s-1.351-.764-1.491-1.486c-.157-.807.353-1.594.937-2.172s1.283-1.071 1.679-1.791c.466-.846.466-1.925 1.077-2.673.625-.764 1.744-.963 2.709-.757s1.82.745 2.667 1.251a55.4 55.4 0 0 0 15.877 6.418c.611.142 2.745.272 3.118 1.358.154.449.044 1.149-.187 1.68-.19.436-.402.622-.61.897"/></defs><clipPath id="n"><use xlink:href="#m" style="overflow:visible"/></clipPath><g style="clip-path:url(#n)"><path style="fill:#471751" d="M338.862 99.015c1.034-3.91 3.387-7.277 4.866-11.011.154-.388-.473-.556-.625-.172-1.479 3.736-3.83 7.095-4.866 11.011-.107.404.518.576.625.172"/></g><g style="clip-path:url(#n)"><path style="fill:#471751" d="M339.984 99.354c1.12-3.542 3.772-6.358 4.846-9.923.121-.401-.505-.572-.625-.172-1.073 3.561-3.725 6.378-4.846 9.923-.126.398.499.569.625.172"/></g><g style="clip-path:url(#n)"><path style="fill:#471751" d="M337.077 98.393c.142-.987.291-1.994.811-2.863.471-.787 1.129-1.448 1.646-2.205a12.7 12.7 0 0 0 2.015-5.062c.068-.408-.557-.583-.625-.172a12.25 12.25 0 0 1-2.15 5.192c-.535.738-1.196 1.398-1.611 2.219-.429.849-.576 1.788-.71 2.719-.06.409.565.585.625.173"/></g><g style="clip-path:url(#n)"><path style="fill:#471751" d="M341.638 99.304a32 32 0 0 0 4.859-9.575c.124-.399-.501-.57-.625-.172a31.5 31.5 0 0 1-4.794 9.421c-.249.335.314.659.56.327"/></g><g style="clip-path:url(#n)"><path style="fill:#471751" d="M343.705 100.094a22.2 22.2 0 0 0 4.972-8.975c.113-.403-.513-.574-.625-.172a21.5 21.5 0 0 1-4.805 8.69c-.281.307.177.767.458.458"/></g><g style="clip-path:url(#n)"><path style="fill:#471751" d="M345.526 100.79a28.7 28.7 0 0 0 5.595-10.012c.127-.398-.499-.569-.625-.172a27.9 27.9 0 0 1-5.429 9.725c-.271.315.186.776.459.459"/></g><g style="clip-path:url(#n)"><path style="fill:#471751" d="M347.353 101.144a36.2 36.2 0 0 0 5.202-8.997c.155-.388-.472-.556-.625-.172a35.2 35.2 0 0 1-5.035 8.711c-.257.324.199.786.458.458"/></g><g style="clip-path:url(#n)"><path style="fill:#471751" d="M349.114 101.582a46.7 46.7 0 0 0 4.591-8.733c.154-.388-.473-.556-.625-.172a46 46 0 0 1-4.526 8.578c-.233.348.329.673.56.327"/></g><g style="clip-path:url(#n)"><path style="fill:#471751" d="M350.521 103.005a47.5 47.5 0 0 0 5.541-9.71c.161-.38-.397-.71-.56-.327a47.5 47.5 0 0 1-5.541 9.71c-.249.336.314.66.56.327"/></g><g style="clip-path:url(#n)"><path style="fill:#471751" d="M352.652 102.788a65.6 65.6 0 0 0 4.516-8.463c.167-.378-.391-.708-.56-.327a65.6 65.6 0 0 1-4.516 8.463c-.223.354.338.68.56.327"/></g><g style="clip-path:url(#n)"><path style="fill:#471751" d="M354.515 103.372a53.3 53.3 0 0 0 3.633-8.177c.137-.395-.489-.565-.625-.172a52 52 0 0 1-3.568 8.021c-.201.366.359.694.56.327"/></g><g style="clip-path:url(#n)"><path style="fill:#471751" d="M356.502 103.632a38 38 0 0 0 3.386-9.147c.093-.406-.532-.58-.625-.172a37.3 37.3 0 0 1-3.321 8.991c-.194.369.366.698.559.327"/></g><g style="clip-path:url(#n)"><path style="fill:#471751" d="M358.062 104.502c1.013-1.127 1.542-2.541 1.996-3.964.55-1.724 1.087-3.452 1.631-5.178.126-.399-.5-.57-.625-.172l-1.542 4.899c-.443 1.404-.915 2.842-1.918 3.957-.278.31.179.77.458.459"/></g><g style="clip-path:url(#n)"><path style="fill:#471751" d="M359.651 108.348c.558-4.17 2.849-7.873 3.38-12.054.052-.413-.596-.409-.649 0-.53 4.175-2.821 7.88-3.38 12.054-.055.412.594.408.649 0"/></g></g><g style="opacity:.13"><path style="fill:#471751" d="M301.864 142.977a12.18 12.18 0 0 0 7.096-5.076c.23-.349-.331-.675-.56-.327a11.5 11.5 0 0 1-6.708 4.778c-.404.104-.233.73.172.626"/></g><g style="opacity:.13"><path style="fill:#471751" d="M360.094 163.484a15.33 15.33 0 0 1 7.557 6.402c.214.358.774.032.56-.327a16.05 16.05 0 0 0-7.945-6.7c-.389-.151-.558.476-.173.626"/></g><g style="opacity:.13"><path style="fill:#471751" d="M341.654 120.681a15.2 15.2 0 0 0 9.028.391c.403-.107.232-.732-.172-.625a14.56 14.56 0 0 1-8.683-.391c-.394-.142-.563.484-.173.625"/></g><g style="opacity:.13"><path style="fill:#471751" d="M326.725 104.996c-2.797-.921-6.009-.146-8.087 1.938-.295.296.163.755.459.459 1.924-1.928 4.872-2.622 7.456-1.771.397.131.567-.495.172-.626"/></g><g style="opacity:.13"><path style="fill:#471751" d="M328.58 102.3a22.1 22.1 0 0 1-7.658-3.828c-.326-.253-.788.203-.459.459a22.9 22.9 0 0 0 7.944 3.994c.404.111.575-.514.173-.625"/></g><path transform="rotate(-78.341 637.459 195.701)" style="fill:#4c113d" d="M342.002 104.373a2.002 1.265 0 0 1-2.003 1.265 2.002 1.265 0 0 1-2.002-1.265 2.002 1.265 0 0 1 4.005 0"/><path style="fill:#4c113d" d="M342.376 105.42c-.077-.707-.178-1.451-.42-2.123-.201-.558-.604-.964-1.182-1.119-1.255-.336-2.298.533-3.145 1.338-.288.274.148.709.436.436.659-.626 1.494-1.423 2.49-1.194.455.105.719.401.853.841.179.59.286 1.209.353 1.821.018.167.129.306.308.308.152.002.325-.142.307-.308m7.836 1.781a11 11 0 0 1 .947-1.428c.301-.381.644-.654 1.154-.587 1.066.14 1.541 1.273 1.91 2.138.066.154.29.186.422.11.159-.091.175-.269.11-.422-.468-1.093-1.106-2.3-2.426-2.441-.605-.065-1.129.197-1.515.653a10.7 10.7 0 0 0-1.135 1.666c-.196.346.337.657.532.311"/><path transform="rotate(-78.341 660.444 200.446)" style="fill:#4c113d" d="M354.261 106.904a2.002 1.265 0 0 1-2.002 1.265 2.002 1.265 0 0 1-2.002-1.265 2.002 1.265 0 0 1 4.004 0"/><g style="opacity:.13"><path style="fill:#4c113d" d="M342.599 112.021c.603.619 1.35 1.315 2.276 1.297.909-.018 1.551-.72 2.078-1.379.095-.119.115-.281 0-.398-.097-.099-.303-.118-.398 0-.419.524-.944 1.199-1.68 1.214-.764.015-1.385-.626-1.878-1.132-.253-.26-.651.139-.398.398"/></g><path style="fill:#ffedff" d="M340.283 113.538c.213-.374 1.901.893 5.044 1.063 3.003.163 4.973-.804 5.14-.385.147.367-1.27 1.351-2.536 1.866-.56.227-1.708.678-3.102.537-2.71-.276-4.8-2.634-4.546-3.081"/></svg>